<svg width="175" height="32" viewBox="0 0 175 32" fill="none" xmlns="http://www.w3.org/2000/svg">
<path d="M47.0439 22.6688C44.9767 22.6688 43.2692 21.9968 41.9215 20.6528C40.5739 19.3088 39.9 17.6512 39.9 15.68C39.9 13.696 40.5739 12.0384 41.9215 10.7072C43.2692 9.36316 44.9767 8.69116 47.0439 8.69116C48.2869 8.69116 49.4318 8.97916 50.4785 9.55516C51.5383 10.1184 52.3626 10.8864 52.9514 11.8592L50.6159 13.184C50.2757 12.5824 49.7916 12.1152 49.1636 11.7824C48.5355 11.4368 47.829 11.264 47.0439 11.264C45.7094 11.264 44.6299 11.6736 43.8056 12.4928C42.9944 13.312 42.5888 14.3744 42.5888 15.68C42.5888 16.9728 42.9944 18.0288 43.8056 18.848C44.6299 19.6672 45.7094 20.0768 47.0439 20.0768C47.829 20.0768 48.5355 19.9104 49.1636 19.5776C49.8047 19.232 50.2888 18.7648 50.6159 18.176L52.9514 19.5008C52.3626 20.4736 51.5449 21.248 50.4982 21.824C49.4514 22.3872 48.3 22.6688 47.0439 22.6688Z" fill="#111117"/>
<path d="M62.3269 21.2096C61.3194 22.1824 60.0895 22.6688 58.6372 22.6688C57.1848 22.6688 55.9549 22.1824 54.9475 21.2096C53.9531 20.224 53.4559 19.0208 53.4559 17.6C53.4559 16.1792 53.9531 14.9824 54.9475 14.0096C55.9549 13.024 57.1848 12.5312 58.6372 12.5312C60.0895 12.5312 61.3194 13.024 62.3269 14.0096C63.3344 14.9824 63.8381 16.1792 63.8381 17.6C63.8381 19.0208 63.3344 20.224 62.3269 21.2096ZM56.7334 19.5008C57.2437 20 57.8783 20.2496 58.6372 20.2496C59.3961 20.2496 60.0306 20 60.5409 19.5008C61.0512 19.0016 61.3063 18.368 61.3063 17.6C61.3063 16.832 61.0512 16.1984 60.5409 15.6992C60.0306 15.2 59.3961 14.9504 58.6372 14.9504C57.8783 14.9504 57.2437 15.2 56.7334 15.6992C56.2362 16.1984 55.9877 16.832 55.9877 17.6C55.9877 18.368 56.2362 19.0016 56.7334 19.5008Z" fill="#111117"/>
<path d="M73.3912 21.2096C72.3837 22.1824 71.1538 22.6688 69.7014 22.6688C68.2491 22.6688 67.0192 22.1824 66.0117 21.2096C65.0173 20.224 64.5201 19.0208 64.5201 17.6C64.5201 16.1792 65.0173 14.9824 66.0117 14.0096C67.0192 13.024 68.2491 12.5312 69.7014 12.5312C71.1538 12.5312 72.3837 13.024 73.3912 14.0096C74.3986 14.9824 74.9024 16.1792 74.9024 17.6C74.9024 19.0208 74.3986 20.224 73.3912 21.2096ZM67.7977 19.5008C68.308 20 68.9426 20.2496 69.7014 20.2496C70.4603 20.2496 71.0949 20 71.6052 19.5008C72.1154 19.0016 72.3706 18.368 72.3706 17.6C72.3706 16.832 72.1154 16.1984 71.6052 15.6992C71.0949 15.2 70.4603 14.9504 69.7014 14.9504C68.9426 14.9504 68.308 15.2 67.7977 15.6992C67.3005 16.1984 67.0519 16.832 67.0519 17.6C67.0519 18.368 67.3005 19.0016 67.7977 19.5008Z" fill="#111117"/>
<path d="M78.6264 14.4512C78.8619 13.8368 79.2479 13.376 79.7844 13.0688C80.3339 12.7616 80.9423 12.608 81.6096 12.608V15.3728C80.8376 15.2832 80.1442 15.4368 79.5292 15.8336C78.9274 16.2304 78.6264 16.8896 78.6264 17.8112V22.4H76.0947V12.8H78.6264V14.4512Z" fill="#111117"/>
<path d="M88.2127 12.5312C89.5342 12.5312 90.6595 13.024 91.5884 14.0096C92.5305 14.9824 93.0015 16.1792 93.0015 17.6C93.0015 19.0208 92.5305 20.224 91.5884 21.2096C90.6595 22.1824 89.5342 22.6688 88.2127 22.6688C86.8389 22.6688 85.7791 22.2016 85.0333 21.2672V26.24H82.5015V12.8H85.0333V13.9328C85.7791 12.9984 86.8389 12.5312 88.2127 12.5312ZM85.7987 19.5584C86.309 20.0576 86.9567 20.3072 87.7417 20.3072C88.5268 20.3072 89.1744 20.0576 89.6847 19.5584C90.2081 19.0464 90.4697 18.3936 90.4697 17.6C90.4697 16.8064 90.2081 16.16 89.6847 15.6608C89.1744 15.1488 88.5268 14.8928 87.7417 14.8928C86.9567 14.8928 86.309 15.1488 85.7987 15.6608C85.2884 16.16 85.0333 16.8064 85.0333 17.6C85.0333 18.3936 85.2884 19.0464 85.7987 19.5584Z" fill="#111117"/>
<path d="M105.052 12.5312C106.177 12.5312 107.073 12.8896 107.74 13.6064C108.421 14.3232 108.761 15.2832 108.761 16.4864V22.4H106.229V16.6592C106.229 16.0832 106.085 15.6352 105.797 15.3152C105.509 14.9952 105.104 14.8352 104.58 14.8352C104.005 14.8352 103.553 15.0208 103.226 15.392C102.912 15.7632 102.755 16.3008 102.755 17.0048V22.4H100.223V16.6592C100.223 16.0832 100.08 15.6352 99.7917 15.3152C99.5039 14.9952 99.0983 14.8352 98.5749 14.8352C98.0123 14.8352 97.5609 15.0208 97.2207 15.392C96.8936 15.7632 96.73 16.3008 96.73 17.0048V22.4H94.1983V12.8H96.73V13.8176C97.3188 12.96 98.2282 12.5312 99.4581 12.5312C100.662 12.5312 101.552 12.992 102.127 13.9136C102.781 12.992 103.756 12.5312 105.052 12.5312Z" fill="#111117"/>
<path d="M117.78 12.8H120.312V22.4H117.78V21.2672C117.021 22.2016 115.955 22.6688 114.581 22.6688C113.273 22.6688 112.148 22.1824 111.206 21.2096C110.277 20.224 109.812 19.0208 109.812 17.6C109.812 16.1792 110.277 14.9824 111.206 14.0096C112.148 13.024 113.273 12.5312 114.581 12.5312C115.955 12.5312 117.021 12.9984 117.78 13.9328V12.8ZM113.109 19.5584C113.62 20.0576 114.267 20.3072 115.052 20.3072C115.837 20.3072 116.485 20.0576 116.995 19.5584C117.519 19.0464 117.78 18.3936 117.78 17.6C117.78 16.8064 117.519 16.16 116.995 15.6608C116.485 15.1488 115.837 14.8928 115.052 14.8928C114.267 14.8928 113.62 15.1488 113.109 15.6608C112.599 16.16 112.344 16.8064 112.344 17.6C112.344 18.3936 112.599 19.0464 113.109 19.5584Z" fill="#111117"/>
<path d="M127.475 12.5312C128.548 12.5312 129.431 12.8832 130.125 13.5872C130.831 14.2912 131.185 15.264 131.185 16.5056V22.4H128.653V16.8128C128.653 16.1728 128.476 15.6864 128.123 15.3536C127.77 15.008 127.299 14.8352 126.71 14.8352C126.056 14.8352 125.532 15.0336 125.14 15.4304C124.747 15.8272 124.551 16.4224 124.551 17.216V22.4H122.019V12.8H124.551V13.8752C125.166 12.9792 126.141 12.5312 127.475 12.5312Z" fill="#111117"/>
<path d="M140.215 12.8H142.747V22.4H140.215V21.2672C139.457 22.2016 138.39 22.6688 137.016 22.6688C135.708 22.6688 134.583 22.1824 133.641 21.2096C132.712 20.224 132.247 19.0208 132.247 17.6C132.247 16.1792 132.712 14.9824 133.641 14.0096C134.583 13.024 135.708 12.5312 137.016 12.5312C138.39 12.5312 139.457 12.9984 140.215 13.9328V12.8ZM135.544 19.5584C136.055 20.0576 136.702 20.3072 137.487 20.3072C138.272 20.3072 138.92 20.0576 139.43 19.5584C139.954 19.0464 140.215 18.3936 140.215 17.6C140.215 16.8064 139.954 16.16 139.43 15.6608C138.92 15.1488 138.272 14.8928 137.487 14.8928C136.702 14.8928 136.055 15.1488 135.544 15.6608C135.034 16.16 134.779 16.8064 134.779 17.6C134.779 18.3936 135.034 19.0464 135.544 19.5584Z" fill="#111117"/>
<path d="M151.971 12.8H154.444V21.9392C154.444 23.424 153.94 24.5568 152.933 25.3376C151.938 26.1184 150.735 26.5088 149.322 26.5088C148.262 26.5088 147.326 26.3104 146.515 25.9136C145.717 25.5168 145.102 24.9344 144.67 24.1664L146.829 22.9568C147.326 23.8528 148.183 24.3008 149.4 24.3008C150.198 24.3008 150.826 24.096 151.284 23.6864C151.742 23.2768 151.971 22.6944 151.971 21.9392V20.9024C151.225 21.8752 150.179 22.3616 148.831 22.3616C147.444 22.3616 146.279 21.888 145.337 20.9408C144.408 19.9808 143.944 18.816 143.944 17.4464C143.944 16.0896 144.415 14.9312 145.357 13.9712C146.299 13.0112 147.457 12.5312 148.831 12.5312C150.179 12.5312 151.225 13.0176 151.971 13.9904V12.8ZM147.241 19.3472C147.765 19.8336 148.425 20.0768 149.223 20.0768C150.022 20.0768 150.676 19.8336 151.186 19.3472C151.709 18.848 151.971 18.2144 151.971 17.4464C151.971 16.6912 151.709 16.0704 151.186 15.584C150.676 15.0848 150.022 14.8352 149.223 14.8352C148.425 14.8352 147.765 15.0848 147.241 15.584C146.731 16.0704 146.476 16.6912 146.476 17.4464C146.476 18.2144 146.731 18.848 147.241 19.3472Z" fill="#111117"/>
<path d="M158.29 18.6176C158.63 19.8208 159.553 20.4224 161.058 20.4224C162.026 20.4224 162.758 20.1024 163.256 19.4624L165.297 20.6144C164.329 21.984 162.902 22.6688 161.018 22.6688C159.396 22.6688 158.094 22.1888 157.113 21.2288C156.131 20.2688 155.641 19.0592 155.641 17.6C155.641 16.1536 156.125 14.9504 157.093 13.9904C158.061 13.0176 159.304 12.5312 160.822 12.5312C162.261 12.5312 163.445 13.0176 164.374 13.9904C165.316 14.9632 165.787 16.1664 165.787 17.6C165.787 17.92 165.755 18.2592 165.689 18.6176H158.29ZM158.251 16.6976H163.256C163.112 16.0448 162.811 15.5584 162.353 15.2384C161.908 14.9184 161.398 14.7584 160.822 14.7584C160.142 14.7584 159.579 14.9312 159.134 15.2768C158.689 15.6096 158.395 16.0832 158.251 16.6976Z" fill="#111117"/>
<path d="M169.498 14.4512C169.733 13.8368 170.119 13.376 170.656 13.0688C171.205 12.7616 171.814 12.608 172.481 12.608V15.3728C171.709 15.2832 171.016 15.4368 170.401 15.8336C169.799 16.2304 169.498 16.8896 169.498 17.8112V22.4H166.966V12.8H169.498V14.4512Z" fill="#111117"/>
<path fill-rule="evenodd" clip-rule="evenodd" d="M6 0C2.68629 0 0 2.68629 0 6V26C0 29.3137 2.68629 32 6 32H26.7103C30.024 32 32.7103 29.3137 32.7103 26V6C32.7103 2.68629 30.024 0 26.7103 0H6ZM10.125 7.41999C9.34091 6.69334 8.10294 6.69334 7.36016 7.41999C6.57611 8.14664 6.57611 9.35773 7.36016 10.1248L12.2295 14.8884C13.0136 15.615 14.2103 15.615 14.9943 14.8884C15.7371 14.1214 15.7371 12.9103 14.9943 12.1836L10.125 7.41999ZM17.675 12.1836C16.9322 12.9506 16.9322 14.1617 17.675 14.8884C18.4177 15.615 19.6557 15.615 20.4398 14.8884L25.3091 10.1248C26.0519 9.35773 26.0519 8.14664 25.3091 7.41999C24.5251 6.69334 23.2871 6.69334 22.5443 7.41999L17.675 12.1836ZM7.36115 21.8724C6.61837 22.6394 6.61837 23.8505 7.36115 24.5772C8.10394 25.3038 9.34191 25.3038 10.126 24.5772L14.9953 19.8135C15.7381 19.0465 15.7381 17.8354 14.9953 17.1088C14.2113 16.3821 12.9733 16.3821 12.2305 17.1088L7.36115 21.8724ZM17.6779 17.1088C18.4207 16.3821 19.6587 16.3821 20.4427 17.1088L25.3121 21.8724C26.0549 22.599 26.0549 23.8101 25.3121 24.5772C24.5693 25.3038 23.3313 25.3038 22.5473 24.5772L17.6779 19.8135C16.8939 19.0465 16.8939 17.8354 17.6779 17.1088Z" fill="#111117"/>
</svg>
