<?xml version="1.0" encoding="UTF-8" standalone="no"?>
<!DOCTYPE svg PUBLIC "-//W3C//DTD SVG 1.1//EN"
 "http://www.w3.org/Graphics/SVG/1.1/DTD/svg11.dtd">
<!-- Generated by graphviz version 2.38.0 (20140413.2041)
 -->
<!-- Title: G Pages: 1 -->
<svg width="1893pt" height="1780pt"
 viewBox="0.00 0.00 1892.86 1779.81" xmlns="http://www.w3.org/2000/svg" xmlns:xlink="http://www.w3.org/1999/xlink">
<g id="graph0" class="graph" transform="scale(1 1) rotate(0) translate(7.992 1771.82)">
<title>G</title>
<polygon fill="#ffffff" stroke="none" points="-7.992,7.992 -7.992,-1771.82 1884.87,-1771.82 1884.87,7.992 -7.992,7.992"/>
<!-- atom/centered&#45;text -->
<g id="node1" class="node"><title>atom/centered&#45;text</title>
<ellipse fill="none" stroke="#3498db" cx="439.488" cy="-1514.42" rx="89.1573" ry="18"/>
<text text-anchor="middle" x="439.488" y="-1511.27" font-family="Arial" font-size="14.00" fill="#3498db">atom/centered&#45;text</text>
</g>
<!-- behaviour/align/centered -->
<g id="node2" class="node"><title>behaviour/align/centered</title>
<ellipse fill="none" stroke="#5aba98" cx="237.002" cy="-1745.83" rx="113.932" ry="18"/>
<text text-anchor="middle" x="237.002" y="-1742.68" font-family="Arial" font-size="14.00" fill="#5aba98">behaviour/align/centered</text>
</g>
<!-- atom/centered&#45;text&#45;&gt;behaviour/align/centered -->
<g id="edge1" class="edge"><title>atom/centered&#45;text&#45;&gt;behaviour/align/centered</title>
<path fill="none" stroke="#000000" d="M423.936,-1532.2C388.306,-1572.92 300.667,-1673.07 259.302,-1720.34"/>
<polygon fill="#000000" stroke="#000000" points="256.558,-1718.16 252.607,-1728 261.826,-1722.77 256.558,-1718.16"/>
</g>
<!-- atom/link -->
<g id="node3" class="node"><title>atom/link</title>
<ellipse fill="none" stroke="#5aba98" cx="188.513" cy="-684.282" rx="48.4456" ry="18"/>
<text text-anchor="middle" x="188.513" y="-681.131" font-family="Arial" font-size="14.00" fill="#5aba98">atom/link</text>
</g>
<!-- atom/picture -->
<g id="node4" class="node"><title>atom/picture</title>
<ellipse fill="none" stroke="#5aba98" cx="992.932" cy="-605.46" rx="62.7319" ry="18"/>
<text text-anchor="middle" x="992.932" y="-602.309" font-family="Arial" font-size="14.00" fill="#5aba98">atom/picture</text>
</g>
<!-- atom/spinner -->
<g id="node5" class="node"><title>atom/spinner</title>
<ellipse fill="none" stroke="#5aba98" cx="455.02" cy="-1336.2" rx="65.4776" ry="18"/>
<text text-anchor="middle" x="455.02" y="-1333.05" font-family="Arial" font-size="14.00" fill="#5aba98">atom/spinner</text>
</g>
<!-- atom/star -->
<g id="node6" class="node"><title>atom/star</title>
<ellipse fill="none" stroke="#5aba98" cx="298.92" cy="-18" rx="50.0834" ry="18"/>
<text text-anchor="middle" x="298.92" y="-14.8493" font-family="Arial" font-size="14.00" fill="#5aba98">atom/star</text>
</g>
<!-- behaviour/effects/hover&#45;fill -->
<g id="node7" class="node"><title>behaviour/effects/hover&#45;fill</title>
<ellipse fill="none" stroke="#5aba98" cx="618.878" cy="-269.756" rx="120.664" ry="18"/>
<text text-anchor="middle" x="618.878" y="-266.606" font-family="Arial" font-size="14.00" fill="#5aba98">behaviour/effects/hover&#45;fill</text>
</g>
<!-- molecule/catalog&#45;card -->
<g id="node8" class="node"><title>molecule/catalog&#45;card</title>
<ellipse fill="none" stroke="#3498db" cx="562.28" cy="-592.263" rx="102.894" ry="18"/>
<text text-anchor="middle" x="562.28" y="-589.112" font-family="Arial" font-size="14.00" fill="#3498db">molecule/catalog&#45;card</text>
</g>
<!-- molecule/catalog&#45;card&#45;&gt;atom/link -->
<g id="edge2" class="edge"><title>molecule/catalog&#45;card&#45;&gt;atom/link</title>
<path fill="none" stroke="#000000" d="M502.642,-606.945C429.716,-624.899 307.558,-654.974 239.045,-671.841"/>
<polygon fill="#000000" stroke="#000000" points="237.805,-668.542 228.932,-674.331 239.479,-675.339 237.805,-668.542"/>
</g>
<!-- molecule/catalog&#45;card&#45;&gt;atom/picture -->
<g id="edge3" class="edge"><title>molecule/catalog&#45;card&#45;&gt;atom/picture</title>
<path fill="none" stroke="#000000" d="M663.793,-595.373C742.601,-597.789 849.951,-601.078 920.316,-603.235"/>
<polygon fill="#000000" stroke="#000000" points="920.319,-606.736 930.421,-603.544 920.533,-599.74 920.319,-606.736"/>
</g>
<!-- molecule/catalog&#45;card&#45;&gt;behaviour/effects/hover&#45;fill -->
<g id="edge4" class="edge"><title>molecule/catalog&#45;card&#45;&gt;behaviour/effects/hover&#45;fill</title>
<path fill="none" stroke="#000000" d="M565.485,-573.999C574.922,-520.228 602.65,-362.225 613.975,-297.694"/>
<polygon fill="#000000" stroke="#000000" points="617.426,-298.274 615.708,-287.819 610.532,-297.064 617.426,-298.274"/>
</g>
<!-- molecule/star&#45;rating -->
<g id="node9" class="node"><title>molecule/star&#45;rating</title>
<ellipse fill="none" stroke="#3498db" cx="481.639" cy="-220.355" rx="93.5214" ry="18"/>
<text text-anchor="middle" x="481.639" y="-217.204" font-family="Arial" font-size="14.00" fill="#3498db">molecule/star&#45;rating</text>
</g>
<!-- molecule/catalog&#45;card&#45;&gt;molecule/star&#45;rating -->
<g id="edge5" class="edge"><title>molecule/catalog&#45;card&#45;&gt;molecule/star&#45;rating</title>
<path fill="none" stroke="#000000" d="M558.336,-574.073C545.286,-513.886 503.441,-320.905 487.702,-248.315"/>
<polygon fill="#000000" stroke="#000000" points="491.115,-247.54 485.575,-238.509 484.274,-249.024 491.115,-247.54"/>
</g>
<!-- molecule/star&#45;rating&#45;&gt;atom/star -->
<g id="edge14" class="edge"><title>molecule/star&#45;rating&#45;&gt;atom/star</title>
<path fill="none" stroke="#000000" d="M465.424,-202.397C432.685,-166.14 358.639,-84.1366 321.317,-42.8033"/>
<polygon fill="#000000" stroke="#000000" points="323.878,-40.4179 314.579,-35.3415 318.683,-45.1091 323.878,-40.4179"/>
</g>
<!-- molecule/catalog&#45;cta -->
<g id="node10" class="node"><title>molecule/catalog&#45;cta</title>
<ellipse fill="none" stroke="#3498db" cx="805.769" cy="-325.844" rx="97.3739" ry="18"/>
<text text-anchor="middle" x="805.769" y="-322.693" font-family="Arial" font-size="14.00" fill="#3498db">molecule/catalog&#45;cta</text>
</g>
<!-- molecule/catalog&#45;cta&#45;&gt;behaviour/effects/hover&#45;fill -->
<g id="edge6" class="edge"><title>molecule/catalog&#45;cta&#45;&gt;behaviour/effects/hover&#45;fill</title>
<path fill="none" stroke="#000000" d="M754.7,-310.518C732.477,-303.848 706.197,-295.961 682.703,-288.911"/>
<polygon fill="#000000" stroke="#000000" points="683.409,-285.468 672.825,-285.946 681.397,-292.173 683.409,-285.468"/>
</g>
<!-- molecule/catalog&#45;cta&#45;&gt;molecule/star&#45;rating -->
<g id="edge7" class="edge"><title>molecule/catalog&#45;cta&#45;&gt;molecule/star&#45;rating</title>
<path fill="none" stroke="#000000" d="M757.594,-310.165C699.256,-291.179 601.106,-259.236 538.942,-239.004"/>
<polygon fill="#000000" stroke="#000000" points="539.878,-235.628 529.286,-235.862 537.712,-242.285 539.878,-235.628"/>
</g>
<!-- molecule/categories -->
<g id="node11" class="node"><title>molecule/categories</title>
<ellipse fill="none" stroke="#3498db" cx="114.097" cy="-840.206" rx="94.6378" ry="18"/>
<text text-anchor="middle" x="114.097" y="-837.055" font-family="Arial" font-size="14.00" fill="#3498db">molecule/categories</text>
</g>
<!-- molecule/categories&#45;&gt;atom/link -->
<g id="edge8" class="edge"><title>molecule/categories&#45;&gt;atom/link</title>
<path fill="none" stroke="#000000" d="M122.779,-822.014C135.774,-794.786 160.37,-743.249 175.513,-711.52"/>
<polygon fill="#000000" stroke="#000000" points="178.738,-712.89 179.886,-702.357 172.42,-709.875 178.738,-712.89"/>
</g>
<!-- molecule/cursus&#45;header -->
<g id="node12" class="node"><title>molecule/cursus&#45;header</title>
<ellipse fill="none" stroke="#3498db" cx="975.119" cy="-929.324" rx="111.151" ry="18"/>
<text text-anchor="middle" x="975.119" y="-926.174" font-family="Arial" font-size="14.00" fill="#3498db">molecule/cursus&#45;header</text>
</g>
<!-- molecule/cursus&#45;header&#45;&gt;atom/picture -->
<g id="edge9" class="edge"><title>molecule/cursus&#45;header&#45;&gt;atom/picture</title>
<path fill="none" stroke="#000000" d="M976.128,-910.984C979.092,-857.098 987.789,-698.972 991.367,-633.917"/>
<polygon fill="#000000" stroke="#000000" points="994.88,-633.776 991.934,-623.599 987.89,-633.392 994.88,-633.776"/>
</g>
<!-- molecule/cursus&#45;list -->
<g id="node13" class="node"><title>molecule/cursus&#45;list</title>
<ellipse fill="none" stroke="#3498db" cx="93.5015" cy="-959.262" rx="93.503" ry="18"/>
<text text-anchor="middle" x="93.5015" y="-956.112" font-family="Arial" font-size="14.00" fill="#3498db">molecule/cursus&#45;list</text>
</g>
<!-- molecule/cursus&#45;list&#45;&gt;atom/link -->
<g id="edge10" class="edge"><title>molecule/cursus&#45;list&#45;&gt;atom/link</title>
<path fill="none" stroke="#000000" d="M99.7355,-941.22C115.942,-894.315 159.487,-768.289 178.92,-712.045"/>
<polygon fill="#000000" stroke="#000000" points="182.298,-712.985 182.256,-702.39 175.682,-710.699 182.298,-712.985"/>
</g>
<!-- molecule/discipline&#45;header -->
<g id="node14" class="node"><title>molecule/discipline&#45;header</title>
<ellipse fill="none" stroke="#3498db" cx="1482.63" cy="-690.889" rx="122.161" ry="18"/>
<text text-anchor="middle" x="1482.63" y="-687.738" font-family="Arial" font-size="14.00" fill="#3498db">molecule/discipline&#45;header</text>
</g>
<!-- molecule/video&#45;iframe -->
<g id="node15" class="node"><title>molecule/video&#45;iframe</title>
<ellipse fill="none" stroke="#3498db" cx="1363.52" cy="-487.188" rx="102.876" ry="18"/>
<text text-anchor="middle" x="1363.52" y="-484.037" font-family="Arial" font-size="14.00" fill="#3498db">molecule/video&#45;iframe</text>
</g>
<!-- molecule/discipline&#45;header&#45;&gt;molecule/video&#45;iframe -->
<g id="edge11" class="edge"><title>molecule/discipline&#45;header&#45;&gt;molecule/video&#45;iframe</title>
<path fill="none" stroke="#000000" d="M1472.06,-672.811C1451.05,-636.874 1403.93,-556.289 1379.26,-514.102"/>
<polygon fill="#000000" stroke="#000000" points="1382.14,-512.09 1374.07,-505.224 1376.1,-515.624 1382.14,-512.09"/>
</g>
<!-- molecule/video&#45;iframe&#45;&gt;atom/picture -->
<g id="edge15" class="edge"><title>molecule/video&#45;iframe&#45;&gt;atom/picture</title>
<path fill="none" stroke="#000000" d="M1313.93,-503.016C1243.76,-525.41 1116.12,-566.145 1044.76,-588.92"/>
<polygon fill="#000000" stroke="#000000" points="1043.53,-585.636 1035.07,-592.011 1045.66,-592.305 1043.53,-585.636"/>
</g>
<!-- molecule/discipline&#45;scope -->
<g id="node16" class="node"><title>molecule/discipline&#45;scope</title>
<ellipse fill="none" stroke="#3498db" cx="1579.59" cy="-1038.35" rx="118.269" ry="18"/>
<text text-anchor="middle" x="1579.59" y="-1035.2" font-family="Arial" font-size="14.00" fill="#3498db">molecule/discipline&#45;scope</text>
</g>
<!-- molecule/scope&#45;content -->
<g id="node17" class="node"><title>molecule/scope&#45;content</title>
<ellipse fill="none" stroke="#5aba98" cx="1710.57" cy="-1169.97" rx="110.071" ry="18"/>
<text text-anchor="middle" x="1710.57" y="-1166.82" font-family="Arial" font-size="14.00" fill="#5aba98">molecule/scope&#45;content</text>
</g>
<!-- molecule/discipline&#45;scope&#45;&gt;molecule/scope&#45;content -->
<g id="edge12" class="edge"><title>molecule/discipline&#45;scope&#45;&gt;molecule/scope&#45;content</title>
<path fill="none" stroke="#000000" d="M1597.53,-1056.38C1620.35,-1079.32 1659.91,-1119.06 1685.66,-1144.94"/>
<polygon fill="#000000" stroke="#000000" points="1683.31,-1147.54 1692.85,-1152.16 1688.27,-1142.61 1683.31,-1147.54"/>
</g>
<!-- molecule/scope&#45;tabs -->
<g id="node18" class="node"><title>molecule/scope&#45;tabs</title>
<ellipse fill="none" stroke="#5aba98" cx="1779.69" cy="-947.743" rx="97.3739" ry="18"/>
<text text-anchor="middle" x="1779.69" y="-944.592" font-family="Arial" font-size="14.00" fill="#5aba98">molecule/scope&#45;tabs</text>
</g>
<!-- molecule/discipline&#45;scope&#45;&gt;molecule/scope&#45;tabs -->
<g id="edge13" class="edge"><title>molecule/discipline&#45;scope&#45;&gt;molecule/scope&#45;tabs</title>
<path fill="none" stroke="#000000" d="M1617.7,-1021.09C1650.55,-1006.22 1698.11,-984.686 1733.2,-968.797"/>
<polygon fill="#000000" stroke="#000000" points="1735.07,-971.788 1742.74,-964.475 1732.19,-965.412 1735.07,-971.788"/>
</g>
<!-- organism/catalog&#45;cards -->
<g id="node19" class="node"><title>organism/catalog&#45;cards</title>
<ellipse fill="none" stroke="#3498db" cx="642.891" cy="-1079.53" rx="108.906" ry="18"/>
<text text-anchor="middle" x="642.891" y="-1076.38" font-family="Arial" font-size="14.00" fill="#3498db">organism/catalog&#45;cards</text>
</g>
<!-- organism/catalog&#45;cards&#45;&gt;atom/centered&#45;text -->
<g id="edge16" class="edge"><title>organism/catalog&#45;cards&#45;&gt;atom/centered&#45;text</title>
<path fill="none" stroke="#000000" d="M634.41,-1097.67C602.62,-1165.63 490.407,-1405.55 452.278,-1487.08"/>
<polygon fill="#000000" stroke="#000000" points="449.072,-1485.67 448.006,-1496.21 455.413,-1488.64 449.072,-1485.67"/>
</g>
<!-- organism/catalog&#45;cards&#45;&gt;atom/spinner -->
<g id="edge17" class="edge"><title>organism/catalog&#45;cards&#45;&gt;atom/spinner</title>
<path fill="none" stroke="#000000" d="M629.68,-1097.58C596.993,-1142.24 512.228,-1258.05 474.097,-1310.14"/>
<polygon fill="#000000" stroke="#000000" points="471.049,-1308.38 467.967,-1318.52 476.697,-1312.51 471.049,-1308.38"/>
</g>
<!-- organism/catalog&#45;cards&#45;&gt;molecule/catalog&#45;card -->
<g id="edge18" class="edge"><title>organism/catalog&#45;cards&#45;&gt;molecule/catalog&#45;card</title>
<path fill="none" stroke="#000000" d="M639.878,-1061.32C627.655,-987.44 581.722,-709.78 566.913,-620.265"/>
<polygon fill="#000000" stroke="#000000" points="570.351,-619.602 565.266,-610.307 563.445,-620.745 570.351,-619.602"/>
</g>
<!-- organism/cursus&#45;rightaside -->
<g id="node20" class="node"><title>organism/cursus&#45;rightaside</title>
<ellipse fill="none" stroke="#3498db" cx="835.43" cy="-649.856" rx="123.771" ry="18"/>
<text text-anchor="middle" x="835.43" y="-646.705" font-family="Arial" font-size="14.00" fill="#3498db">organism/cursus&#45;rightaside</text>
</g>
<!-- organism/cursus&#45;rightaside&#45;&gt;atom/picture -->
<g id="edge19" class="edge"><title>organism/cursus&#45;rightaside&#45;&gt;atom/picture</title>
<path fill="none" stroke="#000000" d="M892.292,-633.828C907.183,-629.63 923.209,-625.113 937.997,-620.945"/>
<polygon fill="#000000" stroke="#000000" points="939.333,-624.205 948.009,-618.123 937.434,-617.467 939.333,-624.205"/>
</g>
<!-- organism/cursus&#45;rightaside&#45;&gt;molecule/catalog&#45;cta -->
<g id="edge20" class="edge"><title>organism/cursus&#45;rightaside&#45;&gt;molecule/catalog&#45;cta</title>
<path fill="none" stroke="#000000" d="M833.75,-631.507C828.815,-577.596 814.333,-419.398 808.375,-354.314"/>
<polygon fill="#000000" stroke="#000000" points="811.828,-353.631 807.43,-343.991 804.857,-354.269 811.828,-353.631"/>
</g>
<!-- organism/discipline&#45;rightaside -->
<g id="node21" class="node"><title>organism/discipline&#45;rightaside</title>
<ellipse fill="none" stroke="#3498db" cx="1108.79" cy="-515.396" rx="134.782" ry="18"/>
<text text-anchor="middle" x="1108.79" y="-512.246" font-family="Arial" font-size="14.00" fill="#3498db">organism/discipline&#45;rightaside</text>
</g>
<!-- organism/discipline&#45;rightaside&#45;&gt;atom/picture -->
<g id="edge21" class="edge"><title>organism/discipline&#45;rightaside&#45;&gt;atom/picture</title>
<path fill="none" stroke="#000000" d="M1085.9,-533.19C1067.9,-547.185 1042.66,-566.803 1023.02,-582.068"/>
<polygon fill="#000000" stroke="#000000" points="1020.73,-579.414 1014.99,-588.314 1025.03,-584.94 1020.73,-579.414"/>
</g>
<!-- organism/discipline&#45;rightaside&#45;&gt;molecule/catalog&#45;cta -->
<g id="edge22" class="edge"><title>organism/discipline&#45;rightaside&#45;&gt;molecule/catalog&#45;cta</title>
<path fill="none" stroke="#000000" d="M1080.55,-497.734C1025.38,-463.22 903.318,-386.865 842.168,-348.613"/>
<polygon fill="#000000" stroke="#000000" points="843.938,-345.592 833.604,-343.255 840.225,-351.526 843.938,-345.592"/>
</g>
<!-- template/app&#45;catalog/catalog -->
<g id="node22" class="node"><title>template/app&#45;catalog/catalog</title>
<ellipse fill="none" stroke="#3498db" cx="261.419" cy="-1057.33" rx="131.543" ry="18"/>
<text text-anchor="middle" x="261.419" y="-1054.18" font-family="Arial" font-size="14.00" fill="#3498db">template/app&#45;catalog/catalog</text>
</g>
<!-- template/app&#45;catalog/catalog&#45;&gt;molecule/categories -->
<g id="edge23" class="edge"><title>template/app&#45;catalog/catalog&#45;&gt;molecule/categories</title>
<path fill="none" stroke="#000000" d="M249.112,-1039.19C223.049,-1000.78 162.201,-911.102 131.899,-866.443"/>
<polygon fill="#000000" stroke="#000000" points="134.776,-864.45 126.265,-858.14 128.984,-868.38 134.776,-864.45"/>
</g>
<!-- template/app&#45;catalog/catalog&#45;&gt;molecule/cursus&#45;list -->
<g id="edge24" class="edge"><title>template/app&#45;catalog/catalog&#45;&gt;molecule/cursus&#45;list</title>
<path fill="none" stroke="#000000" d="M231.399,-1039.8C203.615,-1023.57 162.163,-999.363 131.964,-981.725"/>
<polygon fill="#000000" stroke="#000000" points="133.381,-978.5 122.98,-976.479 129.85,-984.544 133.381,-978.5"/>
</g>
<!-- template/app&#45;catalog/catalog&#45;&gt;organism/catalog&#45;cards -->
<g id="edge25" class="edge"><title>template/app&#45;catalog/catalog&#45;&gt;organism/catalog&#45;cards</title>
<path fill="none" stroke="#000000" d="M382.906,-1064.4C430.047,-1067.14 483.719,-1070.27 530.007,-1072.96"/>
<polygon fill="#000000" stroke="#000000" points="529.885,-1076.46 540.071,-1073.55 530.291,-1069.47 529.885,-1076.46"/>
</g>
<!-- template/app&#45;catalog/layout -->
<g id="node23" class="node"><title>template/app&#45;catalog/layout</title>
<ellipse fill="none" stroke="#5aba98" cx="1138.81" cy="-1197.41" rx="126.562" ry="18"/>
<text text-anchor="middle" x="1138.81" y="-1194.26" font-family="Arial" font-size="14.00" fill="#5aba98">template/app&#45;catalog/layout</text>
</g>
<!-- template/app&#45;catalog/product&#45;course -->
<g id="node24" class="node"><title>template/app&#45;catalog/product&#45;course</title>
<ellipse fill="none" stroke="#3498db" cx="1258.71" cy="-916.86" rx="164.471" ry="18"/>
<text text-anchor="middle" x="1258.71" y="-913.71" font-family="Arial" font-size="14.00" fill="#3498db">template/app&#45;catalog/product&#45;course</text>
</g>
<!-- template/app&#45;catalog/product&#45;course&#45;&gt;molecule/discipline&#45;header -->
<g id="edge26" class="edge"><title>template/app&#45;catalog/product&#45;course&#45;&gt;molecule/discipline&#45;header</title>
<path fill="none" stroke="#000000" d="M1276.65,-898.75C1316.47,-858.571 1412.27,-761.9 1457.79,-715.955"/>
<polygon fill="#000000" stroke="#000000" points="1460.36,-718.338 1464.91,-708.771 1455.39,-713.411 1460.36,-718.338"/>
</g>
<!-- template/app&#45;catalog/product&#45;course&#45;&gt;molecule/discipline&#45;scope -->
<g id="edge27" class="edge"><title>template/app&#45;catalog/product&#45;course&#45;&gt;molecule/discipline&#45;scope</title>
<path fill="none" stroke="#000000" d="M1304.68,-934.267C1363.08,-956.376 1463.69,-994.468 1525.65,-1017.93"/>
<polygon fill="#000000" stroke="#000000" points="1524.66,-1021.3 1535.25,-1021.56 1527.14,-1014.75 1524.66,-1021.3"/>
</g>
<!-- template/app&#45;catalog/product&#45;course&#45;&gt;organism/catalog&#45;cards -->
<g id="edge28" class="edge"><title>template/app&#45;catalog/product&#45;course&#45;&gt;organism/catalog&#45;cards</title>
<path fill="none" stroke="#000000" d="M1195.7,-933.505C1079.12,-964.3 830.722,-1029.92 710.655,-1061.63"/>
<polygon fill="#000000" stroke="#000000" points="709.614,-1058.29 700.839,-1064.22 711.402,-1065.05 709.614,-1058.29"/>
</g>
<!-- template/app&#45;catalog/product&#45;course&#45;&gt;organism/discipline&#45;rightaside -->
<g id="edge29" class="edge"><title>template/app&#45;catalog/product&#45;course&#45;&gt;organism/discipline&#45;rightaside</title>
<path fill="none" stroke="#000000" d="M1251.98,-898.83C1228.15,-835.02 1147.71,-619.617 1119.04,-542.852"/>
<polygon fill="#000000" stroke="#000000" points="1122.28,-541.52 1115.5,-533.377 1115.72,-543.969 1122.28,-541.52"/>
</g>
<!-- template/app&#45;catalog/product&#45;course&#45;&gt;template/app&#45;catalog/layout -->
<g id="edge30" class="edge"><title>template/app&#45;catalog/product&#45;course&#45;&gt;template/app&#45;catalog/layout</title>
<path fill="none" stroke="#000000" d="M1250.84,-935.268C1230.3,-983.338 1174.95,-1112.85 1150.59,-1169.85"/>
<polygon fill="#000000" stroke="#000000" points="1147.26,-1168.73 1146.55,-1179.3 1153.7,-1171.48 1147.26,-1168.73"/>
</g>
<!-- template/app&#45;catalog/product&#45;cursus -->
<g id="node25" class="node"><title>template/app&#45;catalog/product&#45;cursus</title>
<ellipse fill="none" stroke="#3498db" cx="875.779" cy="-1018.31" rx="163.913" ry="18"/>
<text text-anchor="middle" x="875.779" y="-1015.15" font-family="Arial" font-size="14.00" fill="#3498db">template/app&#45;catalog/product&#45;cursus</text>
</g>
<!-- template/app&#45;catalog/product&#45;cursus&#45;&gt;molecule/cursus&#45;header -->
<g id="edge31" class="edge"><title>template/app&#45;catalog/product&#45;cursus&#45;&gt;molecule/cursus&#45;header</title>
<path fill="none" stroke="#000000" d="M895.882,-1000.3C910.693,-987.032 931.02,-968.825 947.377,-954.174"/>
<polygon fill="#000000" stroke="#000000" points="949.933,-956.583 955.046,-947.304 945.262,-951.369 949.933,-956.583"/>
</g>
<!-- template/app&#45;catalog/product&#45;cursus&#45;&gt;organism/catalog&#45;cards -->
<g id="edge32" class="edge"><title>template/app&#45;catalog/product&#45;cursus&#45;&gt;organism/catalog&#45;cards</title>
<path fill="none" stroke="#000000" d="M812.449,-1034.95C780.956,-1043.23 742.866,-1053.25 710.772,-1061.69"/>
<polygon fill="#000000" stroke="#000000" points="709.8,-1058.32 701.019,-1064.25 711.58,-1065.09 709.8,-1058.32"/>
</g>
<!-- template/app&#45;catalog/product&#45;cursus&#45;&gt;organism/cursus&#45;rightaside -->
<g id="edge33" class="edge"><title>template/app&#45;catalog/product&#45;cursus&#45;&gt;organism/cursus&#45;rightaside</title>
<path fill="none" stroke="#000000" d="M873.805,-1000.28C867.304,-940.917 846.521,-751.133 838.567,-678.503"/>
<polygon fill="#000000" stroke="#000000" points="842.015,-677.837 837.447,-668.277 835.057,-678.599 842.015,-677.837"/>
</g>
<!-- template/app&#45;catalog/product&#45;cursus&#45;&gt;template/app&#45;catalog/layout -->
<g id="edge34" class="edge"><title>template/app&#45;catalog/product&#45;cursus&#45;&gt;template/app&#45;catalog/layout</title>
<path fill="none" stroke="#000000" d="M901.961,-1036.13C949.72,-1068.65 1050.96,-1137.59 1104.29,-1173.9"/>
<polygon fill="#000000" stroke="#000000" points="1102.5,-1176.92 1112.73,-1179.65 1106.44,-1171.13 1102.5,-1176.92"/>
</g>
</g>
</svg>
