<?xml version="1.0" encoding="UTF-8" standalone="no"?>
<!DOCTYPE svg PUBLIC "-//W3C//DTD SVG 1.1//EN"
 "http://www.w3.org/Graphics/SVG/1.1/DTD/svg11.dtd">
<!-- Generated by graphviz version 2.38.0 (20140413.2041)
 -->
<!-- Title: G Pages: 1 -->
<svg width="1524pt" height="1142pt"
 viewBox="0.00 0.00 1524.25 1141.99" xmlns="http://www.w3.org/2000/svg" xmlns:xlink="http://www.w3.org/1999/xlink">
<g id="graph0" class="graph" transform="scale(1 1) rotate(0) translate(7.992 1134)">
<title>G</title>
<polygon fill="#ffffff" stroke="none" points="-7.992,7.992 -7.992,-1134 1516.26,-1134 1516.26,7.992 -7.992,7.992"/>
<!-- atom/centered&#45;text -->
<g id="node1" class="node"><title>atom/centered&#45;text</title>
<ellipse fill="none" stroke="#3498db" cx="869.638" cy="-175.853" rx="89.1573" ry="18"/>
<text text-anchor="middle" x="869.638" y="-172.702" font-family="Arial" font-size="14.00" fill="#3498db">atom/centered&#45;text</text>
</g>
<!-- behaviour/align/centered -->
<g id="node2" class="node"><title>behaviour/align/centered</title>
<ellipse fill="none" stroke="#5aba98" cx="782.347" cy="-18" rx="113.932" ry="18"/>
<text text-anchor="middle" x="782.347" y="-14.8493" font-family="Arial" font-size="14.00" fill="#5aba98">behaviour/align/centered</text>
</g>
<!-- atom/centered&#45;text&#45;&gt;behaviour/align/centered -->
<g id="edge1" class="edge"><title>atom/centered&#45;text&#45;&gt;behaviour/align/centered</title>
<path fill="none" stroke="#000000" d="M859.625,-157.745C844.381,-130.179 815.249,-77.4977 797.433,-45.2812"/>
<polygon fill="#000000" stroke="#000000" points="800.414,-43.4401 792.512,-36.3827 794.289,-46.8276 800.414,-43.4401"/>
</g>
<!-- atom/image -->
<g id="node3" class="node"><title>atom/image</title>
<ellipse fill="none" stroke="#5aba98" cx="766.89" cy="-920.478" rx="59.9959" ry="18"/>
<text text-anchor="middle" x="766.89" y="-917.327" font-family="Arial" font-size="14.00" fill="#5aba98">atom/image</text>
</g>
<!-- atom/link -->
<g id="node4" class="node"><title>atom/link</title>
<ellipse fill="none" stroke="#5aba98" cx="1292.91" cy="-665.475" rx="48.4456" ry="18"/>
<text text-anchor="middle" x="1292.91" y="-662.324" font-family="Arial" font-size="14.00" fill="#5aba98">atom/link</text>
</g>
<!-- atom/spinner -->
<g id="node5" class="node"><title>atom/spinner</title>
<ellipse fill="none" stroke="#5aba98" cx="1106.73" cy="-282.464" rx="65.4776" ry="18"/>
<text text-anchor="middle" x="1106.73" y="-279.314" font-family="Arial" font-size="14.00" fill="#5aba98">atom/spinner</text>
</g>
<!-- atom/star -->
<g id="node6" class="node"><title>atom/star</title>
<ellipse fill="none" stroke="#5aba98" cx="1378.55" cy="-1108.01" rx="50.0834" ry="18"/>
<text text-anchor="middle" x="1378.55" y="-1104.86" font-family="Arial" font-size="14.00" fill="#5aba98">atom/star</text>
</g>
<!-- behaviour/effects/hover&#45;fill -->
<g id="node7" class="node"><title>behaviour/effects/hover&#45;fill</title>
<ellipse fill="none" stroke="#5aba98" cx="1028.12" cy="-966.727" rx="120.664" ry="18"/>
<text text-anchor="middle" x="1028.12" y="-963.577" font-family="Arial" font-size="14.00" fill="#5aba98">behaviour/effects/hover&#45;fill</text>
</g>
<!-- molecule/catalog&#45;card -->
<g id="node8" class="node"><title>molecule/catalog&#45;card</title>
<ellipse fill="none" stroke="#3498db" cx="1054.46" cy="-781.102" rx="102.894" ry="18"/>
<text text-anchor="middle" x="1054.46" y="-777.952" font-family="Arial" font-size="14.00" fill="#3498db">molecule/catalog&#45;card</text>
</g>
<!-- molecule/catalog&#45;card&#45;&gt;atom/image -->
<g id="edge2" class="edge"><title>molecule/catalog&#45;card&#45;&gt;atom/image</title>
<path fill="none" stroke="#000000" d="M1019.48,-798.053C966.029,-823.961 864.255,-873.288 807.574,-900.76"/>
<polygon fill="#000000" stroke="#000000" points="806.015,-897.626 798.543,-905.137 809.068,-903.925 806.015,-897.626"/>
</g>
<!-- molecule/catalog&#45;card&#45;&gt;atom/link -->
<g id="edge3" class="edge"><title>molecule/catalog&#45;card&#45;&gt;atom/link</title>
<path fill="none" stroke="#000000" d="M1089.39,-764.165C1133.23,-742.907 1208.2,-706.553 1253.88,-684.4"/>
<polygon fill="#000000" stroke="#000000" points="1255.69,-687.412 1263.16,-679.899 1252.64,-681.113 1255.69,-687.412"/>
</g>
<!-- molecule/catalog&#45;card&#45;&gt;behaviour/effects/hover&#45;fill -->
<g id="edge4" class="edge"><title>molecule/catalog&#45;card&#45;&gt;behaviour/effects/hover&#45;fill</title>
<path fill="none" stroke="#000000" d="M1051.88,-799.239C1047.28,-831.676 1037.61,-899.838 1032.13,-938.461"/>
<polygon fill="#000000" stroke="#000000" points="1028.65,-938.125 1030.71,-948.517 1035.58,-939.108 1028.65,-938.125"/>
</g>
<!-- molecule/star&#45;rating -->
<g id="node9" class="node"><title>molecule/star&#45;rating</title>
<ellipse fill="none" stroke="#3498db" cx="1250.24" cy="-971.124" rx="93.5214" ry="18"/>
<text text-anchor="middle" x="1250.24" y="-967.973" font-family="Arial" font-size="14.00" fill="#3498db">molecule/star&#45;rating</text>
</g>
<!-- molecule/catalog&#45;card&#45;&gt;molecule/star&#45;rating -->
<g id="edge5" class="edge"><title>molecule/catalog&#45;card&#45;&gt;molecule/star&#45;rating</title>
<path fill="none" stroke="#000000" d="M1072.88,-798.979C1107.95,-833.019 1184.39,-907.21 1224.5,-946.14"/>
<polygon fill="#000000" stroke="#000000" points="1222.4,-948.98 1232.01,-953.433 1227.27,-943.957 1222.4,-948.98"/>
</g>
<!-- molecule/star&#45;rating&#45;&gt;atom/star -->
<g id="edge15" class="edge"><title>molecule/star&#45;rating&#45;&gt;atom/star</title>
<path fill="none" stroke="#000000" d="M1267.01,-989.019C1289.52,-1013.03 1329.6,-1055.79 1355.08,-1082.98"/>
<polygon fill="#000000" stroke="#000000" points="1352.78,-1085.64 1362.17,-1090.54 1357.89,-1080.85 1352.78,-1085.64"/>
</g>
<!-- molecule/catalog&#45;cta -->
<g id="node10" class="node"><title>molecule/catalog&#45;cta</title>
<ellipse fill="none" stroke="#3498db" cx="1121.97" cy="-843.086" rx="97.3739" ry="18"/>
<text text-anchor="middle" x="1121.97" y="-839.935" font-family="Arial" font-size="14.00" fill="#3498db">molecule/catalog&#45;cta</text>
</g>
<!-- molecule/catalog&#45;cta&#45;&gt;atom/link -->
<g id="edge6" class="edge"><title>molecule/catalog&#45;cta&#45;&gt;atom/link</title>
<path fill="none" stroke="#000000" d="M1139.3,-825.078C1170.2,-792.967 1234.84,-725.813 1269.6,-689.696"/>
<polygon fill="#000000" stroke="#000000" points="1272.13,-692.116 1276.54,-682.483 1267.08,-687.261 1272.13,-692.116"/>
</g>
<!-- molecule/catalog&#45;cta&#45;&gt;behaviour/effects/hover&#45;fill -->
<g id="edge7" class="edge"><title>molecule/catalog&#45;cta&#45;&gt;behaviour/effects/hover&#45;fill</title>
<path fill="none" stroke="#000000" d="M1108.32,-861.064C1092.47,-881.942 1066.2,-916.564 1048.06,-940.456"/>
<polygon fill="#000000" stroke="#000000" points="1045.04,-938.645 1041.78,-948.727 1050.62,-942.877 1045.04,-938.645"/>
</g>
<!-- molecule/catalog&#45;cta&#45;&gt;molecule/star&#45;rating -->
<g id="edge8" class="edge"><title>molecule/catalog&#45;cta&#45;&gt;molecule/star&#45;rating</title>
<path fill="none" stroke="#000000" d="M1139.8,-860.889C1161.89,-882.933 1199.65,-920.632 1224.78,-945.712"/>
<polygon fill="#000000" stroke="#000000" points="1222.59,-948.472 1232.14,-953.059 1227.54,-943.518 1222.59,-948.472"/>
</g>
<!-- molecule/categories -->
<g id="node11" class="node"><title>molecule/categories</title>
<ellipse fill="none" stroke="#3498db" cx="1413.7" cy="-439.806" rx="94.6378" ry="18"/>
<text text-anchor="middle" x="1413.7" y="-436.655" font-family="Arial" font-size="14.00" fill="#3498db">molecule/categories</text>
</g>
<!-- molecule/categories&#45;&gt;atom/link -->
<g id="edge9" class="edge"><title>molecule/categories&#45;&gt;atom/link</title>
<path fill="none" stroke="#000000" d="M1404.02,-457.892C1382.81,-497.521 1332.14,-592.179 1307.23,-638.716"/>
<polygon fill="#000000" stroke="#000000" points="1304.1,-637.148 1302.47,-647.616 1310.27,-640.451 1304.1,-637.148"/>
</g>
<!-- molecule/cursus&#45;header -->
<g id="node12" class="node"><title>molecule/cursus&#45;header</title>
<ellipse fill="none" stroke="#3498db" cx="696.933" cy="-720.621" rx="111.151" ry="18"/>
<text text-anchor="middle" x="696.933" y="-717.47" font-family="Arial" font-size="14.00" fill="#3498db">molecule/cursus&#45;header</text>
</g>
<!-- molecule/cursus&#45;header&#45;&gt;atom/image -->
<g id="edge10" class="edge"><title>molecule/cursus&#45;header&#45;&gt;atom/image</title>
<path fill="none" stroke="#000000" d="M703.264,-738.709C715.569,-773.861 742.773,-851.58 757.303,-893.089"/>
<polygon fill="#000000" stroke="#000000" points="754.016,-894.292 760.623,-902.574 760.623,-891.979 754.016,-894.292"/>
</g>
<!-- molecule/cursus&#45;list -->
<g id="node13" class="node"><title>molecule/cursus&#45;list</title>
<ellipse fill="none" stroke="#3498db" cx="1394.52" cy="-524.937" rx="93.503" ry="18"/>
<text text-anchor="middle" x="1394.52" y="-521.786" font-family="Arial" font-size="14.00" fill="#3498db">molecule/cursus&#45;list</text>
</g>
<!-- molecule/cursus&#45;list&#45;&gt;atom/link -->
<g id="edge11" class="edge"><title>molecule/cursus&#45;list&#45;&gt;atom/link</title>
<path fill="none" stroke="#000000" d="M1381.44,-543.022C1363.66,-567.611 1331.76,-611.732 1311.5,-639.759"/>
<polygon fill="#000000" stroke="#000000" points="1308.64,-637.746 1305.62,-647.901 1314.31,-641.848 1308.64,-637.746"/>
</g>
<!-- molecule/discipline&#45;header -->
<g id="node14" class="node"><title>molecule/discipline&#45;header</title>
<ellipse fill="none" stroke="#3498db" cx="459.786" cy="-887.39" rx="122.161" ry="18"/>
<text text-anchor="middle" x="459.786" y="-884.239" font-family="Arial" font-size="14.00" fill="#3498db">molecule/discipline&#45;header</text>
</g>
<!-- molecule/video&#45;iframe -->
<g id="node15" class="node"><title>molecule/video&#45;iframe</title>
<ellipse fill="none" stroke="#3498db" cx="544.252" cy="-1044.97" rx="102.876" ry="18"/>
<text text-anchor="middle" x="544.252" y="-1041.82" font-family="Arial" font-size="14.00" fill="#3498db">molecule/video&#45;iframe</text>
</g>
<!-- molecule/discipline&#45;header&#45;&gt;molecule/video&#45;iframe -->
<g id="edge12" class="edge"><title>molecule/discipline&#45;header&#45;&gt;molecule/video&#45;iframe</title>
<path fill="none" stroke="#000000" d="M469.475,-905.466C484.226,-932.985 512.415,-985.574 529.654,-1017.73"/>
<polygon fill="#000000" stroke="#000000" points="526.606,-1019.46 534.415,-1026.62 532.776,-1016.15 526.606,-1019.46"/>
</g>
<!-- molecule/video&#45;iframe&#45;&gt;atom/image -->
<g id="edge16" class="edge"><title>molecule/video&#45;iframe&#45;&gt;atom/image</title>
<path fill="none" stroke="#000000" d="M575.209,-1027.66C615.589,-1005.08 686.177,-965.609 729.501,-941.385"/>
<polygon fill="#000000" stroke="#000000" points="731.291,-944.394 738.311,-936.458 727.874,-938.284 731.291,-944.394"/>
</g>
<!-- molecule/discipline&#45;scope -->
<g id="node16" class="node"><title>molecule/discipline&#45;scope</title>
<ellipse fill="none" stroke="#3498db" cx="282.627" cy="-636.075" rx="118.269" ry="18"/>
<text text-anchor="middle" x="282.627" y="-632.925" font-family="Arial" font-size="14.00" fill="#3498db">molecule/discipline&#45;scope</text>
</g>
<!-- molecule/scope&#45;content -->
<g id="node17" class="node"><title>molecule/scope&#45;content</title>
<ellipse fill="none" stroke="#5aba98" cx="110.285" cy="-720.275" rx="110.071" ry="18"/>
<text text-anchor="middle" x="110.285" y="-717.124" font-family="Arial" font-size="14.00" fill="#5aba98">molecule/scope&#45;content</text>
</g>
<!-- molecule/discipline&#45;scope&#45;&gt;molecule/scope&#45;content -->
<g id="edge13" class="edge"><title>molecule/discipline&#45;scope&#45;&gt;molecule/scope&#45;content</title>
<path fill="none" stroke="#000000" d="M247.335,-653.317C220.41,-666.472 183.16,-684.671 154.29,-698.776"/>
<polygon fill="#000000" stroke="#000000" points="152.684,-695.665 145.235,-703.2 155.757,-701.955 152.684,-695.665"/>
</g>
<!-- molecule/scope&#45;tabs -->
<g id="node18" class="node"><title>molecule/scope&#45;tabs</title>
<ellipse fill="none" stroke="#5aba98" cx="135.356" cy="-531.323" rx="97.3739" ry="18"/>
<text text-anchor="middle" x="135.356" y="-528.172" font-family="Arial" font-size="14.00" fill="#5aba98">molecule/scope&#45;tabs</text>
</g>
<!-- molecule/discipline&#45;scope&#45;&gt;molecule/scope&#45;tabs -->
<g id="edge14" class="edge"><title>molecule/discipline&#45;scope&#45;&gt;molecule/scope&#45;tabs</title>
<path fill="none" stroke="#000000" d="M257.644,-618.305C233.06,-600.819 195.378,-574.016 168.343,-554.786"/>
<polygon fill="#000000" stroke="#000000" points="170.147,-551.774 159.97,-548.83 166.09,-557.479 170.147,-551.774"/>
</g>
<!-- organism/catalog&#45;cards -->
<g id="node19" class="node"><title>organism/catalog&#45;cards</title>
<ellipse fill="none" stroke="#3498db" cx="937.963" cy="-464.559" rx="108.906" ry="18"/>
<text text-anchor="middle" x="937.963" y="-461.408" font-family="Arial" font-size="14.00" fill="#3498db">organism/catalog&#45;cards</text>
</g>
<!-- organism/catalog&#45;cards&#45;&gt;atom/centered&#45;text -->
<g id="edge17" class="edge"><title>organism/catalog&#45;cards&#45;&gt;atom/centered&#45;text</title>
<path fill="none" stroke="#000000" d="M933.689,-446.499C922.137,-397.689 890.23,-262.862 876.295,-203.979"/>
<polygon fill="#000000" stroke="#000000" points="879.62,-202.831 873.911,-193.906 872.808,-204.443 879.62,-202.831"/>
</g>
<!-- organism/catalog&#45;cards&#45;&gt;atom/spinner -->
<g id="edge18" class="edge"><title>organism/catalog&#45;cards&#45;&gt;atom/spinner</title>
<path fill="none" stroke="#000000" d="M954.762,-446.433C985.118,-413.679 1049.15,-344.589 1083.61,-307.407"/>
<polygon fill="#000000" stroke="#000000" points="1086.26,-309.695 1090.49,-299.981 1081.13,-304.936 1086.26,-309.695"/>
</g>
<!-- organism/catalog&#45;cards&#45;&gt;molecule/catalog&#45;card -->
<g id="edge19" class="edge"><title>organism/catalog&#45;cards&#45;&gt;molecule/catalog&#45;card</title>
<path fill="none" stroke="#000000" d="M944.729,-482.946C964.279,-536.067 1020.93,-689.992 1044.24,-753.352"/>
<polygon fill="#000000" stroke="#000000" points="1041.08,-754.883 1047.82,-763.059 1047.65,-752.466 1041.08,-754.883"/>
</g>
<!-- organism/cursus&#45;rightaside -->
<g id="node20" class="node"><title>organism/cursus&#45;rightaside</title>
<ellipse fill="none" stroke="#3498db" cx="970.727" cy="-664.791" rx="123.771" ry="18"/>
<text text-anchor="middle" x="970.727" y="-661.64" font-family="Arial" font-size="14.00" fill="#3498db">organism/cursus&#45;rightaside</text>
</g>
<!-- organism/cursus&#45;rightaside&#45;&gt;molecule/catalog&#45;cta -->
<g id="edge20" class="edge"><title>organism/cursus&#45;rightaside&#45;&gt;molecule/catalog&#45;cta</title>
<path fill="none" stroke="#000000" d="M986.061,-682.868C1013.08,-714.72 1069.24,-780.923 1100.24,-817.47"/>
<polygon fill="#000000" stroke="#000000" points="1097.68,-819.864 1106.82,-825.226 1103.02,-815.336 1097.68,-819.864"/>
</g>
<!-- organism/discipline&#45;rightaside -->
<g id="node21" class="node"><title>organism/discipline&#45;rightaside</title>
<ellipse fill="none" stroke="#3498db" cx="863.929" cy="-860.656" rx="134.782" ry="18"/>
<text text-anchor="middle" x="863.929" y="-857.505" font-family="Arial" font-size="14.00" fill="#3498db">organism/discipline&#45;rightaside</text>
</g>
<!-- organism/discipline&#45;rightaside&#45;&gt;atom/image -->
<g id="edge21" class="edge"><title>organism/discipline&#45;rightaside&#45;&gt;atom/image</title>
<path fill="none" stroke="#000000" d="M835.339,-878.281C824.84,-884.753 812.834,-892.155 801.839,-898.933"/>
<polygon fill="#000000" stroke="#000000" points="799.962,-895.978 793.286,-904.205 803.635,-901.937 799.962,-895.978"/>
</g>
<!-- organism/discipline&#45;rightaside&#45;&gt;behaviour/effects/hover&#45;fill -->
<g id="edge22" class="edge"><title>organism/discipline&#45;rightaside&#45;&gt;behaviour/effects/hover&#45;fill</title>
<path fill="none" stroke="#000000" d="M891.411,-878.41C919.081,-896.284 961.897,-923.945 992.233,-943.542"/>
<polygon fill="#000000" stroke="#000000" points="990.526,-946.606 1000.82,-949.092 994.324,-940.726 990.526,-946.606"/>
</g>
<!-- organism/discipline&#45;rightaside&#45;&gt;molecule/catalog&#45;cta -->
<g id="edge23" class="edge"><title>organism/discipline&#45;rightaside&#45;&gt;molecule/catalog&#45;cta</title>
<path fill="none" stroke="#000000" d="M984.259,-852.462C996.251,-851.646 1008.34,-850.822 1020.12,-850.021"/>
<polygon fill="#000000" stroke="#000000" points="1020.64,-853.494 1030.37,-849.322 1020.16,-846.51 1020.64,-853.494"/>
</g>
<!-- template/app&#45;catalog/catalog -->
<g id="node22" class="node"><title>template/app&#45;catalog/catalog</title>
<ellipse fill="none" stroke="#3498db" cx="1230.46" cy="-390.012" rx="131.543" ry="18"/>
<text text-anchor="middle" x="1230.46" y="-386.861" font-family="Arial" font-size="14.00" fill="#3498db">template/app&#45;catalog/catalog</text>
</g>
<!-- template/app&#45;catalog/catalog&#45;&gt;atom/spinner -->
<g id="edge24" class="edge"><title>template/app&#45;catalog/catalog&#45;&gt;atom/spinner</title>
<path fill="none" stroke="#000000" d="M1209.75,-372.011C1189.07,-354.038 1157.17,-326.308 1134.35,-306.47"/>
<polygon fill="#000000" stroke="#000000" points="1136.53,-303.73 1126.69,-299.811 1131.94,-309.013 1136.53,-303.73"/>
</g>
<!-- template/app&#45;catalog/catalog&#45;&gt;molecule/categories -->
<g id="edge25" class="edge"><title>template/app&#45;catalog/catalog&#45;&gt;molecule/categories</title>
<path fill="none" stroke="#000000" d="M1289.7,-406.11C1308.84,-411.311 1330.15,-417.101 1349.62,-422.394"/>
<polygon fill="#000000" stroke="#000000" points="1348.75,-425.783 1359.32,-425.028 1350.59,-419.028 1348.75,-425.783"/>
</g>
<!-- template/app&#45;catalog/catalog&#45;&gt;molecule/cursus&#45;list -->
<g id="edge26" class="edge"><title>template/app&#45;catalog/catalog&#45;&gt;molecule/cursus&#45;list</title>
<path fill="none" stroke="#000000" d="M1252.24,-407.929C1281.33,-431.851 1332.94,-474.298 1365.36,-500.957"/>
<polygon fill="#000000" stroke="#000000" points="1363.21,-503.725 1373.16,-507.374 1367.66,-498.319 1363.21,-503.725"/>
</g>
<!-- template/app&#45;catalog/catalog&#45;&gt;organism/catalog&#45;cards -->
<g id="edge27" class="edge"><title>template/app&#45;catalog/catalog&#45;&gt;organism/catalog&#45;cards</title>
<path fill="none" stroke="#000000" d="M1168.07,-405.912C1120.82,-417.954 1055.94,-434.49 1007.11,-446.935"/>
<polygon fill="#000000" stroke="#000000" points="1006.09,-443.584 997.262,-449.445 1007.82,-450.367 1006.09,-443.584"/>
</g>
<!-- template/app&#45;catalog/layout -->
<g id="node23" class="node"><title>template/app&#45;catalog/layout</title>
<ellipse fill="none" stroke="#5aba98" cx="577.165" cy="-479.809" rx="126.562" ry="18"/>
<text text-anchor="middle" x="577.165" y="-476.658" font-family="Arial" font-size="14.00" fill="#5aba98">template/app&#45;catalog/layout</text>
</g>
<!-- template/app&#45;catalog/product&#45;course -->
<g id="node24" class="node"><title>template/app&#45;catalog/product&#45;course</title>
<ellipse fill="none" stroke="#3498db" cx="608.431" cy="-661.314" rx="164.471" ry="18"/>
<text text-anchor="middle" x="608.431" y="-658.163" font-family="Arial" font-size="14.00" fill="#3498db">template/app&#45;catalog/product&#45;course</text>
</g>
<!-- template/app&#45;catalog/product&#45;course&#45;&gt;molecule/discipline&#45;header -->
<g id="edge28" class="edge"><title>template/app&#45;catalog/product&#45;course&#45;&gt;molecule/discipline&#45;header</title>
<path fill="none" stroke="#000000" d="M596.518,-679.433C570.371,-719.2 507.854,-814.284 477.256,-860.82"/>
<polygon fill="#000000" stroke="#000000" points="474.325,-858.907 471.756,-869.185 480.174,-862.752 474.325,-858.907"/>
</g>
<!-- template/app&#45;catalog/product&#45;course&#45;&gt;molecule/discipline&#45;scope -->
<g id="edge29" class="edge"><title>template/app&#45;catalog/product&#45;course&#45;&gt;molecule/discipline&#45;scope</title>
<path fill="none" stroke="#000000" d="M474.033,-650.903C448.844,-648.951 422.717,-646.927 398.162,-645.025"/>
<polygon fill="#000000" stroke="#000000" points="398.35,-641.529 388.109,-644.247 397.809,-648.509 398.35,-641.529"/>
</g>
<!-- template/app&#45;catalog/product&#45;course&#45;&gt;organism/catalog&#45;cards -->
<g id="edge30" class="edge"><title>template/app&#45;catalog/product&#45;course&#45;&gt;organism/catalog&#45;cards</title>
<path fill="none" stroke="#000000" d="M638.256,-643.506C698.177,-607.729 833.112,-527.163 899.539,-487.501"/>
<polygon fill="#000000" stroke="#000000" points="901.651,-490.316 908.443,-482.184 898.062,-484.306 901.651,-490.316"/>
</g>
<!-- template/app&#45;catalog/product&#45;course&#45;&gt;organism/discipline&#45;rightaside -->
<g id="edge31" class="edge"><title>template/app&#45;catalog/product&#45;course&#45;&gt;organism/discipline&#45;rightaside</title>
<path fill="none" stroke="#000000" d="M631.556,-679.356C677.634,-715.307 780.927,-795.896 832.863,-836.418"/>
<polygon fill="#000000" stroke="#000000" points="831.004,-839.406 841.041,-842.798 835.31,-833.887 831.004,-839.406"/>
</g>
<!-- template/app&#45;catalog/product&#45;course&#45;&gt;template/app&#45;catalog/layout -->
<g id="edge32" class="edge"><title>template/app&#45;catalog/product&#45;course&#45;&gt;template/app&#45;catalog/layout</title>
<path fill="none" stroke="#000000" d="M605.319,-643.247C599.879,-611.663 588.599,-546.184 582.089,-508.394"/>
<polygon fill="#000000" stroke="#000000" points="585.458,-507.333 580.311,-498.072 578.56,-508.521 585.458,-507.333"/>
</g>
<!-- template/app&#45;catalog/product&#45;cursus -->
<g id="node25" class="node"><title>template/app&#45;catalog/product&#45;cursus</title>
<ellipse fill="none" stroke="#3498db" cx="775.7" cy="-543.529" rx="163.913" ry="18"/>
<text text-anchor="middle" x="775.7" y="-540.379" font-family="Arial" font-size="14.00" fill="#3498db">template/app&#45;catalog/product&#45;cursus</text>
</g>
<!-- template/app&#45;catalog/product&#45;cursus&#45;&gt;molecule/cursus&#45;header -->
<g id="edge33" class="edge"><title>template/app&#45;catalog/product&#45;cursus&#45;&gt;molecule/cursus&#45;header</title>
<path fill="none" stroke="#000000" d="M767.567,-561.814C753.734,-592.914 725.548,-656.286 709.274,-692.875"/>
<polygon fill="#000000" stroke="#000000" points="705.887,-691.876 705.021,-702.435 712.283,-694.721 705.887,-691.876"/>
</g>
<!-- template/app&#45;catalog/product&#45;cursus&#45;&gt;organism/catalog&#45;cards -->
<g id="edge34" class="edge"><title>template/app&#45;catalog/product&#45;cursus&#45;&gt;organism/catalog&#45;cards</title>
<path fill="none" stroke="#000000" d="M812.115,-525.807C836.248,-514.061 868.058,-498.58 893.659,-486.121"/>
<polygon fill="#000000" stroke="#000000" points="895.324,-489.203 902.784,-481.68 892.26,-482.909 895.324,-489.203"/>
</g>
<!-- template/app&#45;catalog/product&#45;cursus&#45;&gt;organism/cursus&#45;rightaside -->
<g id="edge35" class="edge"><title>template/app&#45;catalog/product&#45;cursus&#45;&gt;organism/cursus&#45;rightaside</title>
<path fill="none" stroke="#000000" d="M804.477,-561.422C838.809,-582.769 896.271,-618.497 933.837,-641.854"/>
<polygon fill="#000000" stroke="#000000" points="932.125,-644.911 942.466,-647.219 935.822,-638.967 932.125,-644.911"/>
</g>
<!-- template/app&#45;catalog/product&#45;cursus&#45;&gt;template/app&#45;catalog/layout -->
<g id="edge36" class="edge"><title>template/app&#45;catalog/product&#45;cursus&#45;&gt;template/app&#45;catalog/layout</title>
<path fill="none" stroke="#000000" d="M722.496,-526.453C696.513,-518.114 665.119,-508.038 638.168,-499.388"/>
<polygon fill="#000000" stroke="#000000" points="639.049,-495.995 628.458,-496.271 636.91,-502.66 639.049,-495.995"/>
</g>
</g>
</svg>
