<?xml version="1.0" encoding="UTF-8" standalone="no"?>
<!DOCTYPE svg PUBLIC "-//W3C//DTD SVG 1.1//EN"
 "http://www.w3.org/Graphics/SVG/1.1/DTD/svg11.dtd">
<!-- Generated by graphviz version 2.38.0 (20140413.2041)
 -->
<!-- Title: G Pages: 1 -->
<svg width="2156pt" height="1567pt"
 viewBox="0.00 0.00 2155.68 1566.52" xmlns="http://www.w3.org/2000/svg" xmlns:xlink="http://www.w3.org/1999/xlink">
<g id="graph0" class="graph" transform="scale(1 1) rotate(0) translate(7.992 1558.53)">
<title>G</title>
<polygon fill="#ffffff" stroke="none" points="-7.992,7.992 -7.992,-1558.53 2147.69,-1558.53 2147.69,7.992 -7.992,7.992"/>
<!-- atom/centered&#45;text -->
<g id="node1" class="node"><title>atom/centered&#45;text</title>
<ellipse fill="none" stroke="#3498db" cx="1114.16" cy="-330.187" rx="89.1573" ry="18"/>
<text text-anchor="middle" x="1114.16" y="-327.037" font-family="Arial" font-size="14.00" fill="#3498db">atom/centered&#45;text</text>
</g>
<!-- behaviour/align/centered -->
<g id="node2" class="node"><title>behaviour/align/centered</title>
<ellipse fill="none" stroke="#5aba98" cx="1011.72" cy="-18" rx="113.932" ry="18"/>
<text text-anchor="middle" x="1011.72" y="-14.8493" font-family="Arial" font-size="14.00" fill="#5aba98">behaviour/align/centered</text>
</g>
<!-- atom/centered&#45;text&#45;&gt;behaviour/align/centered -->
<g id="edge1" class="edge"><title>atom/centered&#45;text&#45;&gt;behaviour/align/centered</title>
<path fill="none" stroke="#000000" d="M1108.21,-312.053C1091.06,-259.786 1041.44,-108.57 1020.85,-45.8107"/>
<polygon fill="#000000" stroke="#000000" points="1024.13,-44.5942 1017.69,-36.184 1017.48,-46.7768 1024.13,-44.5942"/>
</g>
<!-- atom/link -->
<g id="node3" class="node"><title>atom/link</title>
<ellipse fill="none" stroke="#5aba98" cx="1764.37" cy="-871.29" rx="48.4456" ry="18"/>
<text text-anchor="middle" x="1764.37" y="-868.14" font-family="Arial" font-size="14.00" fill="#5aba98">atom/link</text>
</g>
<!-- atom/spinner -->
<g id="node4" class="node"><title>atom/spinner</title>
<ellipse fill="none" stroke="#5aba98" cx="1404.34" cy="-474.742" rx="65.4776" ry="18"/>
<text text-anchor="middle" x="1404.34" y="-471.592" font-family="Arial" font-size="14.00" fill="#5aba98">atom/spinner</text>
</g>
<!-- atom/star -->
<g id="node5" class="node"><title>atom/star</title>
<ellipse fill="none" stroke="#5aba98" cx="2089.65" cy="-1473.27" rx="50.0834" ry="18"/>
<text text-anchor="middle" x="2089.65" y="-1470.12" font-family="Arial" font-size="14.00" fill="#5aba98">atom/star</text>
</g>
<!-- behaviour/effects/hover&#45;fill -->
<g id="node6" class="node"><title>behaviour/effects/hover&#45;fill</title>
<ellipse fill="none" stroke="#5aba98" cx="1741.23" cy="-1113.27" rx="120.664" ry="18"/>
<text text-anchor="middle" x="1741.23" y="-1110.11" font-family="Arial" font-size="14.00" fill="#5aba98">behaviour/effects/hover&#45;fill</text>
</g>
<!-- molecule/catalog&#45;card -->
<g id="node7" class="node"><title>molecule/catalog&#45;card</title>
<ellipse fill="none" stroke="#3498db" cx="1619.42" cy="-966.444" rx="102.894" ry="18"/>
<text text-anchor="middle" x="1619.42" y="-963.293" font-family="Arial" font-size="14.00" fill="#3498db">molecule/catalog&#45;card</text>
</g>
<!-- molecule/catalog&#45;card&#45;&gt;atom/link -->
<g id="edge2" class="edge"><title>molecule/catalog&#45;card&#45;&gt;atom/link</title>
<path fill="none" stroke="#000000" d="M1646.01,-948.991C1670.24,-933.084 1706.1,-909.545 1731.99,-892.546"/>
<polygon fill="#000000" stroke="#000000" points="1733.92,-895.467 1740.36,-887.053 1730.08,-889.615 1733.92,-895.467"/>
</g>
<!-- molecule/catalog&#45;card&#45;&gt;behaviour/effects/hover&#45;fill -->
<g id="edge3" class="edge"><title>molecule/catalog&#45;card&#45;&gt;behaviour/effects/hover&#45;fill</title>
<path fill="none" stroke="#000000" d="M1634.36,-984.447C1655.73,-1010.2 1695.15,-1057.72 1719.67,-1087.28"/>
<polygon fill="#000000" stroke="#000000" points="1717.09,-1089.65 1726.17,-1095.11 1722.48,-1085.18 1717.09,-1089.65"/>
</g>
<!-- molecule/star&#45;rating -->
<g id="node8" class="node"><title>molecule/star&#45;rating</title>
<ellipse fill="none" stroke="#3498db" cx="1808.76" cy="-1260.67" rx="93.5214" ry="18"/>
<text text-anchor="middle" x="1808.76" y="-1257.52" font-family="Arial" font-size="14.00" fill="#3498db">molecule/star&#45;rating</text>
</g>
<!-- molecule/catalog&#45;card&#45;&gt;molecule/star&#45;rating -->
<g id="edge4" class="edge"><title>molecule/catalog&#45;card&#45;&gt;molecule/star&#45;rating</title>
<path fill="none" stroke="#000000" d="M1630.98,-984.406C1663.13,-1034.37 1753.74,-1175.17 1791.7,-1234.15"/>
<polygon fill="#000000" stroke="#000000" points="1788.76,-1236.05 1797.11,-1242.57 1794.64,-1232.26 1788.76,-1236.05"/>
</g>
<!-- molecule/star&#45;rating&#45;&gt;atom/star -->
<g id="edge12" class="edge"><title>molecule/star&#45;rating&#45;&gt;atom/star</title>
<path fill="none" stroke="#000000" d="M1832.23,-1278.43C1883.14,-1316.97 2003.7,-1408.21 2059.88,-1450.73"/>
<polygon fill="#000000" stroke="#000000" points="2057.92,-1453.64 2068,-1456.88 2062.14,-1448.06 2057.92,-1453.64"/>
</g>
<!-- molecule/catalog&#45;cta -->
<g id="node9" class="node"><title>molecule/catalog&#45;cta</title>
<ellipse fill="none" stroke="#3498db" cx="1637.68" cy="-1215.49" rx="97.3739" ry="18"/>
<text text-anchor="middle" x="1637.68" y="-1212.34" font-family="Arial" font-size="14.00" fill="#3498db">molecule/catalog&#45;cta</text>
</g>
<!-- molecule/catalog&#45;cta&#45;&gt;atom/link -->
<g id="edge5" class="edge"><title>molecule/catalog&#45;cta&#45;&gt;atom/link</title>
<path fill="none" stroke="#000000" d="M1644.31,-1197.47C1665.14,-1140.9 1729.3,-966.561 1754.28,-898.71"/>
<polygon fill="#000000" stroke="#000000" points="1757.63,-899.727 1757.8,-889.133 1751.06,-897.309 1757.63,-899.727"/>
</g>
<!-- molecule/catalog&#45;cta&#45;&gt;behaviour/effects/hover&#45;fill -->
<g id="edge6" class="edge"><title>molecule/catalog&#45;cta&#45;&gt;behaviour/effects/hover&#45;fill</title>
<path fill="none" stroke="#000000" d="M1655.72,-1197.69C1672.25,-1181.37 1696.9,-1157.03 1715.49,-1138.67"/>
<polygon fill="#000000" stroke="#000000" points="1718.39,-1140.73 1723.05,-1131.21 1713.48,-1135.75 1718.39,-1140.73"/>
</g>
<!-- molecule/catalog&#45;cta&#45;&gt;molecule/star&#45;rating -->
<g id="edge7" class="edge"><title>molecule/catalog&#45;cta&#45;&gt;molecule/star&#45;rating</title>
<path fill="none" stroke="#000000" d="M1693.7,-1230.28C1709.6,-1234.48 1727.05,-1239.09 1743.44,-1243.42"/>
<polygon fill="#000000" stroke="#000000" points="1742.93,-1246.9 1753.49,-1246.07 1744.72,-1240.14 1742.93,-1246.9"/>
</g>
<!-- molecule/categories -->
<g id="node10" class="node"><title>molecule/categories</title>
<ellipse fill="none" stroke="#3498db" cx="1917.05" cy="-640.107" rx="94.6378" ry="18"/>
<text text-anchor="middle" x="1917.05" y="-636.956" font-family="Arial" font-size="14.00" fill="#3498db">molecule/categories</text>
</g>
<!-- molecule/categories&#45;&gt;atom/link -->
<g id="edge8" class="edge"><title>molecule/categories&#45;&gt;atom/link</title>
<path fill="none" stroke="#000000" d="M1905.07,-658.247C1878.19,-698.947 1812.99,-797.672 1781.69,-845.059"/>
<polygon fill="#000000" stroke="#000000" points="1778.67,-843.278 1776.08,-853.552 1784.52,-847.136 1778.67,-843.278"/>
</g>
<!-- molecule/cursus&#45;header -->
<g id="node11" class="node"><title>molecule/cursus&#45;header</title>
<ellipse fill="none" stroke="#5aba98" cx="1006.83" cy="-1532.54" rx="111.151" ry="18"/>
<text text-anchor="middle" x="1006.83" y="-1529.39" font-family="Arial" font-size="14.00" fill="#5aba98">molecule/cursus&#45;header</text>
</g>
<!-- molecule/cursus&#45;list -->
<g id="node12" class="node"><title>molecule/cursus&#45;list</title>
<ellipse fill="none" stroke="#3498db" cx="1845.87" cy="-538.197" rx="93.503" ry="18"/>
<text text-anchor="middle" x="1845.87" y="-535.046" font-family="Arial" font-size="14.00" fill="#3498db">molecule/cursus&#45;list</text>
</g>
<!-- molecule/cursus&#45;list&#45;&gt;atom/link -->
<g id="edge9" class="edge"><title>molecule/cursus&#45;list&#45;&gt;atom/link</title>
<path fill="none" stroke="#000000" d="M1841.37,-556.58C1827.84,-611.859 1787.48,-776.84 1771.24,-843.194"/>
<polygon fill="#000000" stroke="#000000" points="1767.83,-842.419 1768.85,-852.964 1774.63,-844.082 1767.83,-842.419"/>
</g>
<!-- molecule/discipline&#45;header -->
<g id="node13" class="node"><title>molecule/discipline&#45;header</title>
<ellipse fill="none" stroke="#5aba98" cx="682.69" cy="-824.42" rx="122.161" ry="18"/>
<text text-anchor="middle" x="682.69" y="-821.27" font-family="Arial" font-size="14.00" fill="#5aba98">molecule/discipline&#45;header</text>
</g>
<!-- molecule/discipline&#45;scope -->
<g id="node14" class="node"><title>molecule/discipline&#45;scope</title>
<ellipse fill="none" stroke="#3498db" cx="423.866" cy="-1022.1" rx="118.269" ry="18"/>
<text text-anchor="middle" x="423.866" y="-1018.95" font-family="Arial" font-size="14.00" fill="#3498db">molecule/discipline&#45;scope</text>
</g>
<!-- molecule/scope&#45;content -->
<g id="node15" class="node"><title>molecule/scope&#45;content</title>
<ellipse fill="none" stroke="#5aba98" cx="110.285" cy="-937.475" rx="110.071" ry="18"/>
<text text-anchor="middle" x="110.285" y="-934.324" font-family="Arial" font-size="14.00" fill="#5aba98">molecule/scope&#45;content</text>
</g>
<!-- molecule/discipline&#45;scope&#45;&gt;molecule/scope&#45;content -->
<g id="edge10" class="edge"><title>molecule/discipline&#45;scope&#45;&gt;molecule/scope&#45;content</title>
<path fill="none" stroke="#000000" d="M365.619,-1006.38C312.234,-991.976 233.219,-970.652 177.249,-955.547"/>
<polygon fill="#000000" stroke="#000000" points="177.994,-952.123 167.427,-952.896 176.17,-958.881 177.994,-952.123"/>
</g>
<!-- molecule/scope&#45;tabs -->
<g id="node16" class="node"><title>molecule/scope&#45;tabs</title>
<ellipse fill="none" stroke="#5aba98" cx="132.527" cy="-1165.82" rx="97.3739" ry="18"/>
<text text-anchor="middle" x="132.527" y="-1162.67" font-family="Arial" font-size="14.00" fill="#5aba98">molecule/scope&#45;tabs</text>
</g>
<!-- molecule/discipline&#45;scope&#45;&gt;molecule/scope&#45;tabs -->
<g id="edge11" class="edge"><title>molecule/discipline&#45;scope&#45;&gt;molecule/scope&#45;tabs</title>
<path fill="none" stroke="#000000" d="M388.723,-1039.44C335.393,-1065.75 234.115,-1115.71 176.151,-1144.3"/>
<polygon fill="#000000" stroke="#000000" points="174.309,-1141.31 166.889,-1148.87 177.406,-1147.59 174.309,-1141.31"/>
</g>
<!-- organism/catalog&#45;cards -->
<g id="node17" class="node"><title>organism/catalog&#45;cards</title>
<ellipse fill="none" stroke="#3498db" cx="1277.98" cy="-750.654" rx="108.906" ry="18"/>
<text text-anchor="middle" x="1277.98" y="-747.503" font-family="Arial" font-size="14.00" fill="#3498db">organism/catalog&#45;cards</text>
</g>
<!-- organism/catalog&#45;cards&#45;&gt;atom/centered&#45;text -->
<g id="edge13" class="edge"><title>organism/catalog&#45;cards&#45;&gt;atom/centered&#45;text</title>
<path fill="none" stroke="#000000" d="M1270.94,-732.587C1245.16,-666.412 1155.78,-436.999 1124.82,-357.535"/>
<polygon fill="#000000" stroke="#000000" points="1128.07,-356.234 1121.18,-348.187 1121.55,-358.775 1128.07,-356.234"/>
</g>
<!-- organism/catalog&#45;cards&#45;&gt;atom/spinner -->
<g id="edge14" class="edge"><title>organism/catalog&#45;cards&#45;&gt;atom/spinner</title>
<path fill="none" stroke="#000000" d="M1286.27,-732.551C1307.87,-685.389 1365.98,-558.509 1391.74,-502.25"/>
<polygon fill="#000000" stroke="#000000" points="1395.04,-503.462 1396.02,-492.912 1388.67,-500.547 1395.04,-503.462"/>
</g>
<!-- organism/catalog&#45;cards&#45;&gt;molecule/catalog&#45;card -->
<g id="edge15" class="edge"><title>organism/catalog&#45;cards&#45;&gt;molecule/catalog&#45;card</title>
<path fill="none" stroke="#000000" d="M1305.64,-768.13C1366.87,-806.828 1513.9,-899.757 1582.73,-943.254"/>
<polygon fill="#000000" stroke="#000000" points="1581.19,-946.421 1591.51,-948.805 1584.93,-940.504 1581.19,-946.421"/>
</g>
<!-- organism/cursus&#45;rightaside -->
<g id="node18" class="node"><title>organism/cursus&#45;rightaside</title>
<ellipse fill="none" stroke="#3498db" cx="1385.65" cy="-1399.71" rx="123.771" ry="18"/>
<text text-anchor="middle" x="1385.65" y="-1396.56" font-family="Arial" font-size="14.00" fill="#3498db">organism/cursus&#45;rightaside</text>
</g>
<!-- organism/cursus&#45;rightaside&#45;&gt;molecule/catalog&#45;cta -->
<g id="edge16" class="edge"><title>organism/cursus&#45;rightaside&#45;&gt;molecule/catalog&#45;cta</title>
<path fill="none" stroke="#000000" d="M1409.81,-1382.05C1455.45,-1348.69 1554.3,-1276.44 1605.5,-1239.02"/>
<polygon fill="#000000" stroke="#000000" points="1607.58,-1241.83 1613.59,-1233.1 1603.45,-1236.18 1607.58,-1241.83"/>
</g>
<!-- organism/discipline&#45;rightaside -->
<g id="node19" class="node"><title>organism/discipline&#45;rightaside</title>
<ellipse fill="none" stroke="#3498db" cx="1477.75" cy="-1077.63" rx="134.782" ry="18"/>
<text text-anchor="middle" x="1477.75" y="-1074.48" font-family="Arial" font-size="14.00" fill="#3498db">organism/discipline&#45;rightaside</text>
</g>
<!-- organism/discipline&#45;rightaside&#45;&gt;atom/link -->
<g id="edge17" class="edge"><title>organism/discipline&#45;rightaside&#45;&gt;atom/link</title>
<path fill="none" stroke="#000000" d="M1502.43,-1059.86C1554.74,-1022.2 1676.62,-934.464 1733.76,-893.322"/>
<polygon fill="#000000" stroke="#000000" points="1735.96,-896.051 1742.04,-887.368 1731.88,-890.37 1735.96,-896.051"/>
</g>
<!-- organism/discipline&#45;rightaside&#45;&gt;behaviour/effects/hover&#45;fill -->
<g id="edge18" class="edge"><title>organism/discipline&#45;rightaside&#45;&gt;behaviour/effects/hover&#45;fill</title>
<path fill="none" stroke="#000000" d="M1572.5,-1090.45C1594.99,-1093.49 1619.04,-1096.74 1641.74,-1099.81"/>
<polygon fill="#000000" stroke="#000000" points="1641.34,-1103.29 1651.71,-1101.16 1642.27,-1096.35 1641.34,-1103.29"/>
</g>
<!-- organism/discipline&#45;rightaside&#45;&gt;molecule/star&#45;rating -->
<g id="edge20" class="edge"><title>organism/discipline&#45;rightaside&#45;&gt;molecule/star&#45;rating</title>
<path fill="none" stroke="#000000" d="M1509.49,-1095.18C1570.07,-1128.68 1702.07,-1201.67 1768.65,-1238.49"/>
<polygon fill="#000000" stroke="#000000" points="1767.16,-1241.66 1777.6,-1243.44 1770.54,-1235.53 1767.16,-1241.66"/>
</g>
<!-- organism/discipline&#45;rightaside&#45;&gt;molecule/catalog&#45;cta -->
<g id="edge19" class="edge"><title>organism/discipline&#45;rightaside&#45;&gt;molecule/catalog&#45;cta</title>
<path fill="none" stroke="#000000" d="M1498.66,-1095.66C1526.99,-1120.08 1577.68,-1163.77 1609.39,-1191.11"/>
<polygon fill="#000000" stroke="#000000" points="1607.16,-1193.81 1617.02,-1197.68 1611.73,-1188.5 1607.16,-1193.81"/>
</g>
<!-- template/app&#45;catalog/catalog -->
<g id="node20" class="node"><title>template/app&#45;catalog/catalog</title>
<ellipse fill="none" stroke="#3498db" cx="1612.57" cy="-549.091" rx="131.543" ry="18"/>
<text text-anchor="middle" x="1612.57" y="-545.941" font-family="Arial" font-size="14.00" fill="#3498db">template/app&#45;catalog/catalog</text>
</g>
<!-- template/app&#45;catalog/catalog&#45;&gt;atom/spinner -->
<g id="edge21" class="edge"><title>template/app&#45;catalog/catalog&#45;&gt;atom/spinner</title>
<path fill="none" stroke="#000000" d="M1565.32,-532.221C1532.12,-520.366 1487.79,-504.538 1454.06,-492.494"/>
<polygon fill="#000000" stroke="#000000" points="1454.99,-489.111 1444.4,-489.045 1452.64,-495.704 1454.99,-489.111"/>
</g>
<!-- template/app&#45;catalog/catalog&#45;&gt;molecule/categories -->
<g id="edge22" class="edge"><title>template/app&#45;catalog/catalog&#45;&gt;molecule/categories</title>
<path fill="none" stroke="#000000" d="M1667.36,-565.468C1720.66,-581.401 1801.45,-605.552 1856.6,-622.038"/>
<polygon fill="#000000" stroke="#000000" points="1855.67,-625.41 1866.25,-624.921 1857.67,-618.703 1855.67,-625.41"/>
</g>
<!-- template/app&#45;catalog/catalog&#45;&gt;molecule/cursus&#45;list -->
<g id="edge23" class="edge"><title>template/app&#45;catalog/catalog&#45;&gt;molecule/cursus&#45;list</title>
<path fill="none" stroke="#000000" d="M1737.41,-543.261C1739.88,-543.146 1742.34,-543.031 1744.8,-542.916"/>
<polygon fill="#000000" stroke="#000000" points="1745,-546.411 1754.82,-542.448 1744.67,-539.419 1745,-546.411"/>
</g>
<!-- template/app&#45;catalog/catalog&#45;&gt;organism/catalog&#45;cards -->
<g id="edge24" class="edge"><title>template/app&#45;catalog/catalog&#45;&gt;organism/catalog&#45;cards</title>
<path fill="none" stroke="#000000" d="M1583.17,-566.802C1522.43,-603.393 1383.16,-687.294 1315.82,-727.861"/>
<polygon fill="#000000" stroke="#000000" points="1313.96,-724.897 1307.2,-733.055 1317.57,-730.893 1313.96,-724.897"/>
</g>
<!-- template/app&#45;catalog/layout -->
<g id="node21" class="node"><title>template/app&#45;catalog/layout</title>
<ellipse fill="none" stroke="#5aba98" cx="861.979" cy="-1205.5" rx="126.562" ry="18"/>
<text text-anchor="middle" x="861.979" y="-1202.35" font-family="Arial" font-size="14.00" fill="#5aba98">template/app&#45;catalog/layout</text>
</g>
<!-- template/app&#45;catalog/product&#45;course -->
<g id="node22" class="node"><title>template/app&#45;catalog/product&#45;course</title>
<ellipse fill="none" stroke="#3498db" cx="945.524" cy="-967.867" rx="164.471" ry="18"/>
<text text-anchor="middle" x="945.524" y="-964.716" font-family="Arial" font-size="14.00" fill="#3498db">template/app&#45;catalog/product&#45;course</text>
</g>
<!-- template/app&#45;catalog/product&#45;course&#45;&gt;molecule/discipline&#45;header -->
<g id="edge25" class="edge"><title>template/app&#45;catalog/product&#45;course&#45;&gt;molecule/discipline&#45;header</title>
<path fill="none" stroke="#000000" d="M913.032,-950.134C865.221,-924.04 775.949,-875.318 723.693,-846.798"/>
<polygon fill="#000000" stroke="#000000" points="725.152,-843.607 714.698,-841.889 721.799,-849.752 725.152,-843.607"/>
</g>
<!-- template/app&#45;catalog/product&#45;course&#45;&gt;molecule/discipline&#45;scope -->
<g id="edge26" class="edge"><title>template/app&#45;catalog/product&#45;course&#45;&gt;molecule/discipline&#45;scope</title>
<path fill="none" stroke="#000000" d="M826.172,-980.276C737.501,-989.495 617.551,-1001.97 531.747,-1010.89"/>
<polygon fill="#000000" stroke="#000000" points="531.304,-1007.41 521.72,-1011.93 532.028,-1014.38 531.304,-1007.41"/>
</g>
<!-- template/app&#45;catalog/product&#45;course&#45;&gt;organism/catalog&#45;cards -->
<g id="edge27" class="edge"><title>template/app&#45;catalog/product&#45;course&#45;&gt;organism/catalog&#45;cards</title>
<path fill="none" stroke="#000000" d="M972.73,-950.092C1032.54,-911.013 1175.46,-817.64 1242.33,-773.946"/>
<polygon fill="#000000" stroke="#000000" points="1244.41,-776.77 1250.87,-768.37 1240.58,-770.91 1244.41,-776.77"/>
</g>
<!-- template/app&#45;catalog/product&#45;course&#45;&gt;organism/discipline&#45;rightaside -->
<g id="edge28" class="edge"><title>template/app&#45;catalog/product&#45;course&#45;&gt;organism/discipline&#45;rightaside</title>
<path fill="none" stroke="#000000" d="M1022.63,-983.77C1121.6,-1004.18 1292.67,-1039.46 1394.52,-1060.47"/>
<polygon fill="#000000" stroke="#000000" points="1393.96,-1063.93 1404.46,-1062.52 1395.37,-1057.07 1393.96,-1063.93"/>
</g>
<!-- template/app&#45;catalog/product&#45;course&#45;&gt;template/app&#45;catalog/layout -->
<g id="edge29" class="edge"><title>template/app&#45;catalog/product&#45;course&#45;&gt;template/app&#45;catalog/layout</title>
<path fill="none" stroke="#000000" d="M939.107,-986.119C924.553,-1027.52 888.966,-1128.74 871.697,-1177.86"/>
<polygon fill="#000000" stroke="#000000" points="868.318,-1176.92 868.304,-1187.51 874.922,-1179.24 868.318,-1176.92"/>
</g>
<!-- template/app&#45;catalog/product&#45;cursus -->
<g id="node23" class="node"><title>template/app&#45;catalog/product&#45;cursus</title>
<ellipse fill="none" stroke="#3498db" cx="1160.31" cy="-1211.23" rx="163.913" ry="18"/>
<text text-anchor="middle" x="1160.31" y="-1208.08" font-family="Arial" font-size="14.00" fill="#3498db">template/app&#45;catalog/product&#45;cursus</text>
</g>
<!-- template/app&#45;catalog/product&#45;cursus&#45;&gt;molecule/cursus&#45;header -->
<g id="edge30" class="edge"><title>template/app&#45;catalog/product&#45;cursus&#45;&gt;molecule/cursus&#45;header</title>
<path fill="none" stroke="#000000" d="M1151.62,-1229.43C1125.92,-1283.22 1050.22,-1441.71 1019.75,-1505.49"/>
<polygon fill="#000000" stroke="#000000" points="1016.58,-1504.01 1015.43,-1514.54 1022.9,-1507.03 1016.58,-1504.01"/>
</g>
<!-- template/app&#45;catalog/product&#45;cursus&#45;&gt;organism/catalog&#45;cards -->
<g id="edge31" class="edge"><title>template/app&#45;catalog/product&#45;cursus&#45;&gt;organism/catalog&#45;cards</title>
<path fill="none" stroke="#000000" d="M1164.92,-1193.18C1182.97,-1122.53 1248.89,-864.507 1270.83,-778.652"/>
<polygon fill="#000000" stroke="#000000" points="1274.25,-779.389 1273.34,-768.834 1267.47,-777.656 1274.25,-779.389"/>
</g>
<!-- template/app&#45;catalog/product&#45;cursus&#45;&gt;organism/cursus&#45;rightaside -->
<g id="edge32" class="edge"><title>template/app&#45;catalog/product&#45;cursus&#45;&gt;organism/cursus&#45;rightaside</title>
<path fill="none" stroke="#000000" d="M1181.92,-1229.3C1222.65,-1263.38 1310.82,-1337.13 1356.65,-1375.46"/>
<polygon fill="#000000" stroke="#000000" points="1354.52,-1378.24 1364.43,-1381.97 1359.01,-1372.87 1354.52,-1378.24"/>
</g>
<!-- template/app&#45;catalog/product&#45;cursus&#45;&gt;template/app&#45;catalog/layout -->
<g id="edge33" class="edge"><title>template/app&#45;catalog/product&#45;cursus&#45;&gt;template/app&#45;catalog/layout</title>
<path fill="none" stroke="#000000" d="M998.92,-1208.13C998.44,-1208.12 997.959,-1208.11 997.479,-1208.1"/>
<polygon fill="#000000" stroke="#000000" points="997.496,-1204.6 987.431,-1207.91 997.362,-1211.6 997.496,-1204.6"/>
</g>
</g>
</svg>
