<?xml version="1.0" encoding="UTF-8" standalone="no"?>
<!DOCTYPE svg PUBLIC "-//W3C//DTD SVG 1.1//EN"
 "http://www.w3.org/Graphics/SVG/1.1/DTD/svg11.dtd">
<!-- Generated by graphviz version 2.38.0 (20140413.2041)
 -->
<!-- Title: G Pages: 1 -->
<svg width="2120pt" height="1148pt"
 viewBox="0.00 0.00 2119.94 1148.11" xmlns="http://www.w3.org/2000/svg" xmlns:xlink="http://www.w3.org/1999/xlink">
<g id="graph0" class="graph" transform="scale(1 1) rotate(0) translate(7.992 1140.12)">
<title>G</title>
<polygon fill="#ffffff" stroke="none" points="-7.992,7.992 -7.992,-1140.12 2111.95,-1140.12 2111.95,7.992 -7.992,7.992"/>
<!-- atom/centered&#45;text -->
<g id="node1" class="node"><title>atom/centered&#45;text</title>
<ellipse fill="none" stroke="#3498db" cx="1947.45" cy="-880.375" rx="89.1573" ry="18"/>
<text text-anchor="middle" x="1947.45" y="-877.224" font-family="Arial" font-size="14.00" fill="#3498db">atom/centered&#45;text</text>
</g>
<!-- behaviour/align/centered -->
<g id="node2" class="node"><title>behaviour/align/centered</title>
<ellipse fill="none" stroke="#5aba98" cx="1989.99" cy="-1079.96" rx="113.932" ry="18"/>
<text text-anchor="middle" x="1989.99" y="-1076.81" font-family="Arial" font-size="14.00" fill="#5aba98">behaviour/align/centered</text>
</g>
<!-- atom/centered&#45;text&#45;&gt;behaviour/align/centered -->
<g id="edge1" class="edge"><title>atom/centered&#45;text&#45;&gt;behaviour/align/centered</title>
<path fill="none" stroke="#000000" d="M1951.3,-898.439C1958.73,-933.305 1975.1,-1010.11 1983.98,-1051.76"/>
<polygon fill="#000000" stroke="#000000" points="1980.61,-1052.74 1986.12,-1061.79 1987.46,-1051.28 1980.61,-1052.74"/>
</g>
<!-- atom/link -->
<g id="node3" class="node"><title>atom/link</title>
<ellipse fill="none" stroke="#5aba98" cx="1317.51" cy="-433.013" rx="48.4456" ry="18"/>
<text text-anchor="middle" x="1317.51" y="-429.862" font-family="Arial" font-size="14.00" fill="#5aba98">atom/link</text>
</g>
<!-- atom/spinner -->
<g id="node4" class="node"><title>atom/spinner</title>
<ellipse fill="none" stroke="#5aba98" cx="1989.97" cy="-561.952" rx="65.4776" ry="18"/>
<text text-anchor="middle" x="1989.97" y="-558.801" font-family="Arial" font-size="14.00" fill="#5aba98">atom/spinner</text>
</g>
<!-- atom/star -->
<g id="node5" class="node"><title>atom/star</title>
<ellipse fill="none" stroke="#5aba98" cx="1296.65" cy="-73.8706" rx="50.0834" ry="18"/>
<text text-anchor="middle" x="1296.65" y="-70.7199" font-family="Arial" font-size="14.00" fill="#5aba98">atom/star</text>
</g>
<!-- behaviour/effects/hover&#45;fill -->
<g id="node6" class="node"><title>behaviour/effects/hover&#45;fill</title>
<ellipse fill="none" stroke="#5aba98" cx="1219.09" cy="-516.699" rx="120.664" ry="18"/>
<text text-anchor="middle" x="1219.09" y="-513.548" font-family="Arial" font-size="14.00" fill="#5aba98">behaviour/effects/hover&#45;fill</text>
</g>
<!-- molecule/catalog&#45;card -->
<g id="node7" class="node"><title>molecule/catalog&#45;card</title>
<ellipse fill="none" stroke="#3498db" cx="1465.83" cy="-511.258" rx="102.894" ry="18"/>
<text text-anchor="middle" x="1465.83" y="-508.108" font-family="Arial" font-size="14.00" fill="#3498db">molecule/catalog&#45;card</text>
</g>
<!-- molecule/catalog&#45;card&#45;&gt;atom/link -->
<g id="edge2" class="edge"><title>molecule/catalog&#45;card&#45;&gt;atom/link</title>
<path fill="none" stroke="#000000" d="M1433.28,-494.087C1409.99,-481.801 1378.61,-465.244 1354.39,-452.469"/>
<polygon fill="#000000" stroke="#000000" points="1355.97,-449.345 1345.5,-447.775 1352.71,-455.537 1355.97,-449.345"/>
</g>
<!-- molecule/catalog&#45;card&#45;&gt;behaviour/effects/hover&#45;fill -->
<g id="edge3" class="edge"><title>molecule/catalog&#45;card&#45;&gt;behaviour/effects/hover&#45;fill</title>
<path fill="none" stroke="#000000" d="M1363.33,-513.518C1358.46,-513.626 1353.54,-513.734 1348.61,-513.843"/>
<polygon fill="#000000" stroke="#000000" points="1348.4,-510.347 1338.48,-514.066 1348.55,-517.345 1348.4,-510.347"/>
</g>
<!-- molecule/star&#45;rating -->
<g id="node8" class="node"><title>molecule/star&#45;rating</title>
<ellipse fill="none" stroke="#3498db" cx="1237.64" cy="-318.408" rx="93.5214" ry="18"/>
<text text-anchor="middle" x="1237.64" y="-315.257" font-family="Arial" font-size="14.00" fill="#3498db">molecule/star&#45;rating</text>
</g>
<!-- molecule/catalog&#45;card&#45;&gt;molecule/star&#45;rating -->
<g id="edge4" class="edge"><title>molecule/catalog&#45;card&#45;&gt;molecule/star&#45;rating</title>
<path fill="none" stroke="#000000" d="M1444.77,-493.461C1403.76,-458.803 1313.14,-382.213 1266.54,-342.836"/>
<polygon fill="#000000" stroke="#000000" points="1268.55,-339.944 1258.65,-336.162 1264.03,-345.291 1268.55,-339.944"/>
</g>
<!-- molecule/star&#45;rating&#45;&gt;atom/star -->
<g id="edge11" class="edge"><title>molecule/star&#45;rating&#45;&gt;atom/star</title>
<path fill="none" stroke="#000000" d="M1241.98,-300.427C1252.17,-258.207 1277.68,-152.49 1289.9,-101.814"/>
<polygon fill="#000000" stroke="#000000" points="1293.36,-102.42 1292.3,-91.8784 1286.55,-100.778 1293.36,-102.42"/>
</g>
<!-- molecule/catalog&#45;cta -->
<g id="node9" class="node"><title>molecule/catalog&#45;cta</title>
<ellipse fill="none" stroke="#3498db" cx="1038.92" cy="-348.836" rx="97.3739" ry="18"/>
<text text-anchor="middle" x="1038.92" y="-345.686" font-family="Arial" font-size="14.00" fill="#3498db">molecule/catalog&#45;cta</text>
</g>
<!-- molecule/catalog&#45;cta&#45;&gt;atom/link -->
<g id="edge5" class="edge"><title>molecule/catalog&#45;cta&#45;&gt;atom/link</title>
<path fill="none" stroke="#000000" d="M1090.02,-364.276C1141.42,-379.805 1220.03,-403.557 1270.08,-418.68"/>
<polygon fill="#000000" stroke="#000000" points="1269.11,-422.043 1279.69,-421.585 1271.13,-415.342 1269.11,-422.043"/>
</g>
<!-- molecule/catalog&#45;cta&#45;&gt;behaviour/effects/hover&#45;fill -->
<g id="edge6" class="edge"><title>molecule/catalog&#45;cta&#45;&gt;behaviour/effects/hover&#45;fill</title>
<path fill="none" stroke="#000000" d="M1058.2,-366.801C1090.58,-396.964 1155.91,-457.834 1192.58,-491.999"/>
<polygon fill="#000000" stroke="#000000" points="1190.25,-494.608 1199.95,-498.864 1195.02,-489.486 1190.25,-494.608"/>
</g>
<!-- molecule/catalog&#45;cta&#45;&gt;molecule/star&#45;rating -->
<g id="edge7" class="edge"><title>molecule/catalog&#45;cta&#45;&gt;molecule/star&#45;rating</title>
<path fill="none" stroke="#000000" d="M1114.05,-337.333C1127.19,-335.321 1140.93,-333.217 1154.27,-331.174"/>
<polygon fill="#000000" stroke="#000000" points="1155.03,-334.599 1164.38,-329.626 1153.97,-327.68 1155.03,-334.599"/>
</g>
<!-- molecule/categories -->
<g id="node10" class="node"><title>molecule/categories</title>
<ellipse fill="none" stroke="#3498db" cx="1620.88" cy="-407.272" rx="94.6378" ry="18"/>
<text text-anchor="middle" x="1620.88" y="-404.121" font-family="Arial" font-size="14.00" fill="#3498db">molecule/categories</text>
</g>
<!-- molecule/categories&#45;&gt;atom/link -->
<g id="edge8" class="edge"><title>molecule/categories&#45;&gt;atom/link</title>
<path fill="none" stroke="#000000" d="M1534.35,-414.614C1483.33,-418.943 1420.18,-424.302 1375.21,-428.117"/>
<polygon fill="#000000" stroke="#000000" points="1374.71,-424.647 1365.05,-428.98 1375.31,-431.622 1374.71,-424.647"/>
</g>
<!-- molecule/cursus&#45;header -->
<g id="node11" class="node"><title>molecule/cursus&#45;header</title>
<ellipse fill="none" stroke="#5aba98" cx="351.695" cy="-18" rx="111.151" ry="18"/>
<text text-anchor="middle" x="351.695" y="-14.8493" font-family="Arial" font-size="14.00" fill="#5aba98">molecule/cursus&#45;header</text>
</g>
<!-- molecule/discipline&#45;header -->
<g id="node12" class="node"><title>molecule/discipline&#45;header</title>
<ellipse fill="none" stroke="#5aba98" cx="451.955" cy="-755.846" rx="122.161" ry="18"/>
<text text-anchor="middle" x="451.955" y="-752.695" font-family="Arial" font-size="14.00" fill="#5aba98">molecule/discipline&#45;header</text>
</g>
<!-- molecule/discipline&#45;scope -->
<g id="node13" class="node"><title>molecule/discipline&#45;scope</title>
<ellipse fill="none" stroke="#3498db" cx="323.968" cy="-899.116" rx="118.269" ry="18"/>
<text text-anchor="middle" x="323.968" y="-895.966" font-family="Arial" font-size="14.00" fill="#3498db">molecule/discipline&#45;scope</text>
</g>
<!-- molecule/scope&#45;content -->
<g id="node14" class="node"><title>molecule/scope&#45;content</title>
<ellipse fill="none" stroke="#5aba98" cx="110.285" cy="-972.785" rx="110.071" ry="18"/>
<text text-anchor="middle" x="110.285" y="-969.634" font-family="Arial" font-size="14.00" fill="#5aba98">molecule/scope&#45;content</text>
</g>
<!-- molecule/discipline&#45;scope&#45;&gt;molecule/scope&#45;content -->
<g id="edge9" class="edge"><title>molecule/discipline&#45;scope&#45;&gt;molecule/scope&#45;content</title>
<path fill="none" stroke="#000000" d="M276.014,-915.649C243.872,-926.73 201.389,-941.376 167.484,-953.066"/>
<polygon fill="#000000" stroke="#000000" points="166.025,-949.866 157.712,-956.434 168.306,-956.484 166.025,-949.866"/>
</g>
<!-- molecule/scope&#45;tabs -->
<g id="node15" class="node"><title>molecule/scope&#45;tabs</title>
<ellipse fill="none" stroke="#5aba98" cx="217.714" cy="-1114.13" rx="97.3739" ry="18"/>
<text text-anchor="middle" x="217.714" y="-1110.98" font-family="Arial" font-size="14.00" fill="#5aba98">molecule/scope&#45;tabs</text>
</g>
<!-- molecule/discipline&#45;scope&#45;&gt;molecule/scope&#45;tabs -->
<g id="edge10" class="edge"><title>molecule/discipline&#45;scope&#45;&gt;molecule/scope&#45;tabs</title>
<path fill="none" stroke="#000000" d="M315.092,-917.078C296.458,-954.784 253.172,-1042.38 231.131,-1086.98"/>
<polygon fill="#000000" stroke="#000000" points="227.933,-1085.55 226.64,-1096.07 234.208,-1088.65 227.933,-1085.55"/>
</g>
<!-- organism/catalog&#45;cards -->
<g id="node16" class="node"><title>organism/catalog&#45;cards</title>
<ellipse fill="none" stroke="#3498db" cx="1790.18" cy="-641.943" rx="108.906" ry="18"/>
<text text-anchor="middle" x="1790.18" y="-638.792" font-family="Arial" font-size="14.00" fill="#3498db">organism/catalog&#45;cards</text>
</g>
<!-- organism/catalog&#45;cards&#45;&gt;atom/centered&#45;text -->
<g id="edge12" class="edge"><title>organism/catalog&#45;cards&#45;&gt;atom/centered&#45;text</title>
<path fill="none" stroke="#000000" d="M1802,-659.864C1829.44,-701.462 1897.56,-804.746 1929.89,-853.754"/>
<polygon fill="#000000" stroke="#000000" points="1927.06,-855.825 1935.49,-862.246 1932.9,-851.971 1927.06,-855.825"/>
</g>
<!-- organism/catalog&#45;cards&#45;&gt;atom/spinner -->
<g id="edge13" class="edge"><title>organism/catalog&#45;cards&#45;&gt;atom/spinner</title>
<path fill="none" stroke="#000000" d="M1832.07,-625.174C1864.56,-612.165 1909.58,-594.138 1943.24,-580.661"/>
<polygon fill="#000000" stroke="#000000" points="1944.87,-583.779 1952.85,-576.813 1942.27,-577.281 1944.87,-583.779"/>
</g>
<!-- organism/catalog&#45;cards&#45;&gt;molecule/catalog&#45;card -->
<g id="edge14" class="edge"><title>organism/catalog&#45;cards&#45;&gt;molecule/catalog&#45;card</title>
<path fill="none" stroke="#000000" d="M1748.78,-625.259C1689.48,-601.369 1580.5,-557.461 1516.48,-531.667"/>
<polygon fill="#000000" stroke="#000000" points="1517.57,-528.334 1506.99,-527.843 1514.96,-534.827 1517.57,-528.334"/>
</g>
<!-- organism/cursus&#45;rightaside -->
<g id="node17" class="node"><title>organism/cursus&#45;rightaside</title>
<ellipse fill="none" stroke="#3498db" cx="789.158" cy="-203.07" rx="123.771" ry="18"/>
<text text-anchor="middle" x="789.158" y="-199.92" font-family="Arial" font-size="14.00" fill="#3498db">organism/cursus&#45;rightaside</text>
</g>
<!-- organism/cursus&#45;rightaside&#45;&gt;molecule/catalog&#45;cta -->
<g id="edge15" class="edge"><title>organism/cursus&#45;rightaside&#45;&gt;molecule/catalog&#45;cta</title>
<path fill="none" stroke="#000000" d="M819.286,-220.653C864.723,-247.171 950.759,-297.383 1000.6,-326.469"/>
<polygon fill="#000000" stroke="#000000" points="999.064,-329.626 1009.46,-331.644 1002.59,-323.581 999.064,-329.626"/>
</g>
<!-- organism/discipline&#45;rightaside -->
<g id="node18" class="node"><title>organism/discipline&#45;rightaside</title>
<ellipse fill="none" stroke="#3498db" cx="955.555" cy="-492.443" rx="134.782" ry="18"/>
<text text-anchor="middle" x="955.555" y="-489.292" font-family="Arial" font-size="14.00" fill="#3498db">organism/discipline&#45;rightaside</text>
</g>
<!-- organism/discipline&#45;rightaside&#45;&gt;atom/link -->
<g id="edge16" class="edge"><title>organism/discipline&#45;rightaside&#45;&gt;atom/link</title>
<path fill="none" stroke="#000000" d="M1040.88,-478.434C1109.49,-467.168 1203.85,-451.676 1262.73,-442.008"/>
<polygon fill="#000000" stroke="#000000" points="1263.63,-445.406 1272.94,-440.332 1262.5,-438.499 1263.63,-445.406"/>
</g>
<!-- organism/discipline&#45;rightaside&#45;&gt;behaviour/effects/hover&#45;fill -->
<g id="edge17" class="edge"><title>organism/discipline&#45;rightaside&#45;&gt;behaviour/effects/hover&#45;fill</title>
<path fill="none" stroke="#000000" d="M1066.94,-502.694C1079.79,-503.878 1092.92,-505.086 1105.8,-506.271"/>
<polygon fill="#000000" stroke="#000000" points="1105.79,-509.785 1116.07,-507.217 1106.43,-502.815 1105.79,-509.785"/>
</g>
<!-- organism/discipline&#45;rightaside&#45;&gt;molecule/star&#45;rating -->
<g id="edge19" class="edge"><title>organism/discipline&#45;rightaside&#45;&gt;molecule/star&#45;rating</title>
<path fill="none" stroke="#000000" d="M984.155,-474.798C1035.61,-443.053 1143.72,-376.356 1200.7,-341.202"/>
<polygon fill="#000000" stroke="#000000" points="1202.71,-344.071 1209.38,-335.841 1199.04,-338.113 1202.71,-344.071"/>
</g>
<!-- organism/discipline&#45;rightaside&#45;&gt;molecule/catalog&#45;cta -->
<g id="edge18" class="edge"><title>organism/discipline&#45;rightaside&#45;&gt;molecule/catalog&#45;cta</title>
<path fill="none" stroke="#000000" d="M966.114,-474.255C980.584,-449.329 1006.68,-404.377 1023.38,-375.604"/>
<polygon fill="#000000" stroke="#000000" points="1026.46,-377.282 1028.45,-366.877 1020.4,-373.768 1026.46,-377.282"/>
</g>
<!-- template/app&#45;catalog/catalog -->
<g id="node19" class="node"><title>template/app&#45;catalog/catalog</title>
<ellipse fill="none" stroke="#3498db" cx="1845.7" cy="-476.589" rx="131.543" ry="18"/>
<text text-anchor="middle" x="1845.7" y="-473.439" font-family="Arial" font-size="14.00" fill="#3498db">template/app&#45;catalog/catalog</text>
</g>
<!-- template/app&#45;catalog/catalog&#45;&gt;atom/spinner -->
<g id="edge20" class="edge"><title>template/app&#45;catalog/catalog&#45;&gt;atom/spinner</title>
<path fill="none" stroke="#000000" d="M1875.59,-494.276C1898.13,-507.614 1929.17,-525.978 1953.23,-540.212"/>
<polygon fill="#000000" stroke="#000000" points="1951.69,-543.365 1962.07,-545.445 1955.25,-537.341 1951.69,-543.365"/>
</g>
<!-- template/app&#45;catalog/catalog&#45;&gt;molecule/categories -->
<g id="edge21" class="edge"><title>template/app&#45;catalog/catalog&#45;&gt;molecule/categories</title>
<path fill="none" stroke="#000000" d="M1792.13,-460.074C1758.56,-449.723 1715.24,-436.366 1680.57,-425.676"/>
<polygon fill="#000000" stroke="#000000" points="1681.16,-422.195 1670.57,-422.593 1679.09,-428.884 1681.16,-422.195"/>
</g>
<!-- template/app&#45;catalog/catalog&#45;&gt;organism/catalog&#45;cards -->
<g id="edge22" class="edge"><title>template/app&#45;catalog/catalog&#45;&gt;organism/catalog&#45;cards</title>
<path fill="none" stroke="#000000" d="M1839.65,-494.6C1829.98,-523.425 1810.94,-580.132 1799.51,-614.174"/>
<polygon fill="#000000" stroke="#000000" points="1796.09,-613.36 1796.22,-623.954 1802.72,-615.588 1796.09,-613.36"/>
</g>
<!-- template/app&#45;catalog/layout -->
<g id="node20" class="node"><title>template/app&#45;catalog/layout</title>
<ellipse fill="none" stroke="#5aba98" cx="470.923" cy="-405.835" rx="126.562" ry="18"/>
<text text-anchor="middle" x="470.923" y="-402.685" font-family="Arial" font-size="14.00" fill="#5aba98">template/app&#45;catalog/layout</text>
</g>
<!-- template/app&#45;catalog/product&#45;course -->
<g id="node21" class="node"><title>template/app&#45;catalog/product&#45;course</title>
<ellipse fill="none" stroke="#3498db" cx="594.233" cy="-645.898" rx="164.471" ry="18"/>
<text text-anchor="middle" x="594.233" y="-642.747" font-family="Arial" font-size="14.00" fill="#3498db">template/app&#45;catalog/product&#45;course</text>
</g>
<!-- template/app&#45;catalog/product&#45;course&#45;&gt;molecule/discipline&#45;header -->
<g id="edge23" class="edge"><title>template/app&#45;catalog/product&#45;course&#45;&gt;molecule/discipline&#45;header</title>
<path fill="none" stroke="#000000" d="M571.057,-663.807C547.184,-682.256 509.82,-711.13 483.315,-731.612"/>
<polygon fill="#000000" stroke="#000000" points="480.894,-729.06 475.122,-737.944 485.174,-734.598 480.894,-729.06"/>
</g>
<!-- template/app&#45;catalog/product&#45;course&#45;&gt;molecule/discipline&#45;scope -->
<g id="edge24" class="edge"><title>template/app&#45;catalog/product&#45;course&#45;&gt;molecule/discipline&#45;scope</title>
<path fill="none" stroke="#000000" d="M574.797,-664.108C527.268,-708.639 405.098,-823.104 350.74,-874.033"/>
<polygon fill="#000000" stroke="#000000" points="348.133,-871.679 343.229,-881.07 352.919,-876.787 348.133,-871.679"/>
</g>
<!-- template/app&#45;catalog/product&#45;course&#45;&gt;organism/discipline&#45;rightaside -->
<g id="edge25" class="edge"><title>template/app&#45;catalog/product&#45;course&#45;&gt;organism/discipline&#45;rightaside</title>
<path fill="none" stroke="#000000" d="M635.33,-628.444C702.065,-600.101 833.765,-544.168 905.729,-513.604"/>
<polygon fill="#000000" stroke="#000000" points="907.214,-516.776 915.05,-509.645 904.478,-510.333 907.214,-516.776"/>
</g>
<!-- template/app&#45;catalog/product&#45;course&#45;&gt;template/app&#45;catalog/layout -->
<g id="edge26" class="edge"><title>template/app&#45;catalog/product&#45;course&#45;&gt;template/app&#45;catalog/layout</title>
<path fill="none" stroke="#000000" d="M584.965,-627.854C563.541,-586.146 510.479,-482.844 485.008,-433.256"/>
<polygon fill="#000000" stroke="#000000" points="487.981,-431.384 480.299,-424.088 481.755,-434.583 487.981,-431.384"/>
</g>
<!-- template/app&#45;catalog/product&#45;cursus -->
<g id="node22" class="node"><title>template/app&#45;catalog/product&#45;cursus</title>
<ellipse fill="none" stroke="#3498db" cx="493.506" cy="-167.372" rx="163.913" ry="18"/>
<text text-anchor="middle" x="493.506" y="-164.221" font-family="Arial" font-size="14.00" fill="#3498db">template/app&#45;catalog/product&#45;cursus</text>
</g>
<!-- template/app&#45;catalog/product&#45;cursus&#45;&gt;molecule/cursus&#45;header -->
<g id="edge27" class="edge"><title>template/app&#45;catalog/product&#45;cursus&#45;&gt;molecule/cursus&#45;header</title>
<path fill="none" stroke="#000000" d="M476.4,-149.354C451.38,-122.999 404.676,-73.8062 376.069,-43.6733"/>
<polygon fill="#000000" stroke="#000000" points="378.285,-40.9241 368.861,-36.0817 373.208,-45.7437 378.285,-40.9241"/>
</g>
<!-- template/app&#45;catalog/product&#45;cursus&#45;&gt;organism/cursus&#45;rightaside -->
<g id="edge28" class="edge"><title>template/app&#45;catalog/product&#45;cursus&#45;&gt;organism/cursus&#45;rightaside</title>
<path fill="none" stroke="#000000" d="M604.017,-180.716C630.08,-183.862 657.798,-187.209 683.635,-190.329"/>
<polygon fill="#000000" stroke="#000000" points="683.468,-193.834 693.816,-191.558 684.308,-186.885 683.468,-193.834"/>
</g>
<!-- template/app&#45;catalog/product&#45;cursus&#45;&gt;template/app&#45;catalog/layout -->
<g id="edge29" class="edge"><title>template/app&#45;catalog/product&#45;cursus&#45;&gt;template/app&#45;catalog/layout</title>
<path fill="none" stroke="#000000" d="M491.772,-185.688C487.846,-227.143 478.258,-328.382 473.579,-377.789"/>
<polygon fill="#000000" stroke="#000000" points="470.091,-377.498 472.632,-387.784 477.06,-378.158 470.091,-377.498"/>
</g>
</g>
</svg>
